<svg xmlns="http://www.w3.org/2000/svg" xmlns:xlink="http://www.w3.org/1999/xlink" width="500" zoomAndPan="magnify" viewBox="0 0 375 374.999991" height="500" preserveAspectRatio="xMidYMid meet" version="1.0"><defs><g/><clipPath id="b0fc23970b"><path d="M 87.195312 91 L 143 91 L 143 215 L 87.195312 215 Z M 87.195312 91 " clip-rule="nonzero"/></clipPath><clipPath id="2af4902d86"><path d="M 87.195312 211 L 122 211 L 122 228 L 87.195312 228 Z M 87.195312 211 " clip-rule="nonzero"/></clipPath><clipPath id="110808c3bd"><path d="M 201 91 L 256.695312 91 L 256.695312 215 L 201 215 Z M 201 91 " clip-rule="nonzero"/></clipPath><clipPath id="b270fc2705"><path d="M 125 220 L 218 220 L 218 242.75 L 125 242.75 Z M 125 220 " clip-rule="nonzero"/></clipPath><clipPath id="6fa1fdf019"><path d="M 221 211 L 256.695312 211 L 256.695312 228 L 221 228 Z M 221 211 " clip-rule="nonzero"/></clipPath><clipPath id="c62257d884"><path d="M 87.195312 91 L 143 91 L 143 215 L 87.195312 215 Z M 87.195312 91 " clip-rule="nonzero"/></clipPath><clipPath id="fa46cd4895"><path d="M 125 220 L 172 220 L 172 242.75 L 125 242.75 Z M 125 220 " clip-rule="nonzero"/></clipPath><clipPath id="638f731080"><path d="M 87.195312 211 L 122 211 L 122 228 L 87.195312 228 Z M 87.195312 211 " clip-rule="nonzero"/></clipPath><clipPath id="c3290431d9"><path d="M 201 91 L 256.695312 91 L 256.695312 215 L 201 215 Z M 201 91 " clip-rule="nonzero"/></clipPath><clipPath id="44eb6b45a4"><path d="M 171 220 L 218 220 L 218 242.75 L 171 242.75 Z M 171 220 " clip-rule="nonzero"/></clipPath><clipPath id="e7f042269f"><path d="M 221 211 L 256.695312 211 L 256.695312 228 L 221 228 Z M 221 211 " clip-rule="nonzero"/></clipPath></defs><g clip-path="url(#b0fc23970b)"><path fill="#c2af9e" d="M 126.714844 205.480469 C 129.40625 203.253906 132.660156 202.003906 135.707031 200.378906 C 138 199.035156 140.21875 196.589844 139.921875 193.761719 C 139.609375 191.960938 139.898438 190.253906 140.664062 188.609375 C 141.085938 187.703125 141.085938 187.691406 140.171875 187.328125 C 134.792969 185.304688 132.320312 172.082031 131.191406 166.789062 C 130.183594 161.308594 129.691406 155.753906 129.335938 150.199219 C 129.3125 149.875 129.40625 149.765625 129.738281 149.726562 C 133.566406 149.214844 137.699219 149.171875 141.136719 147.214844 C 143.351562 145.667969 141.417969 143.789062 139.539062 143.199219 C 137.609375 142.410156 135.640625 141.710938 133.667969 141.035156 C 133.234375 140.886719 132.65625 140.914062 132.410156 140.53125 C 132.15625 140.132812 132.328125 139.582031 132.328125 139.101562 C 132.328125 138.578125 132.339844 138.566406 132.855469 138.515625 C 133.363281 138.464844 133.878906 138.449219 134.371094 138.300781 C 135.425781 138.003906 135.730469 136.492188 134.851562 135.835938 C 133.976562 135.207031 132.78125 135.347656 131.75 135.277344 C 131.605469 135.277344 131.417969 135.355469 131.296875 135.097656 C 142.085938 125.097656 134.863281 111.972656 126.59375 103.101562 C 126.175781 102.636719 126.273438 102.671875 126.589844 102.316406 C 129.316406 99.488281 129.074219 94.609375 125.535156 92.578125 C 117.988281 88.503906 111.460938 98.292969 118.886719 103.324219 C 117.027344 105.410156 114.980469 107.347656 113.167969 109.5 C 111.679688 110.886719 110.617188 112.605469 109.488281 114.285156 C 104.9375 121.046875 105.800781 129.851562 112.230469 135.105469 C 110.980469 135.394531 108.746094 135.089844 108.269531 136.449219 C 108.078125 137.09375 108.417969 137.6875 108.859375 138.167969 C 109.382812 138.683594 110.25 138.34375 110.941406 138.441406 C 111.0625 139.023438 111.007812 139.601562 111.03125 140.175781 C 111.054688 140.714844 111.023438 140.738281 110.519531 140.921875 C 108.152344 141.800781 105.792969 142.695312 103.449219 143.640625 C 100.878906 144.722656 101.246094 146.867188 103.660156 147.824219 C 106.699219 149.097656 110.011719 149.3125 113.246094 149.734375 C 113.625 149.777344 113.707031 149.917969 113.667969 150.265625 C 113.027344 160 112 169.847656 108.773438 179.113281 C 107.503906 182.039062 106.613281 186.019531 103.304688 187.230469 C 102.898438 187.367188 102.507812 187.578125 102.171875 187.875 C 99.652344 190.117188 101.339844 191.574219 100.632812 193.988281 C 99.601562 196.816406 97.042969 198.507812 94.429688 199.71875 C 91.71875 201.078125 88.746094 202.742188 87.582031 205.707031 C 83.65625 215.363281 115.28125 214.492188 120.835938 214.503906 C 121.199219 214.492188 121.425781 214.492188 121.535156 214.019531 C 122.179688 210.558594 123.957031 207.644531 126.714844 205.480469 Z M 130.695312 185.632812 C 131.21875 186.445312 131.832031 187.203125 132.457031 188.054688 C 127.992188 188.835938 123.554688 188.574219 119.054688 188.570312 C 120.1875 185.339844 120.621094 182.15625 120.855469 178.808594 C 121.304688 170.785156 121.636719 162.765625 121.820312 154.726562 C 125.378906 164.703125 124.660156 176.425781 130.695312 185.632812 Z M 137.246094 144.984375 C 137.414062 145.039062 137.578125 145.117188 137.742188 145.183594 C 133.144531 145.246094 128.597656 145.195312 124.007812 145.167969 C 123.644531 145.167969 123.367188 145.097656 123.085938 144.8125 C 121.59375 143.164062 119.398438 143.414062 117.527344 142.671875 C 121.546875 142.46875 125.691406 142.03125 129.683594 142.40625 C 132.1875 143.324219 134.707031 144.179688 137.246094 144.984375 Z M 120.128906 94.847656 C 121.875 93.402344 124.890625 94.457031 125.101562 96.78125 C 125.332031 98.394531 124.105469 99.746094 122.109375 99.753906 C 119.8125 99.742188 117.921875 96.535156 120.128906 94.847656 Z M 122.414062 102.523438 C 122.367188 102.570312 122.3125 102.46875 122.386719 102.472656 C 122.476562 102.472656 122.359375 102.464844 122.414062 102.523438 Z M 113.433594 124.949219 C 113.449219 124.9375 113.460938 124.933594 113.472656 124.933594 C 113.472656 124.933594 113.472656 124.933594 113.472656 124.929688 C 113.480469 124.945312 113.492188 124.960938 113.507812 124.976562 C 113.511719 124.976562 113.515625 124.972656 113.519531 124.972656 C 113.507812 124.945312 113.492188 124.929688 113.472656 124.929688 C 118.617188 115.222656 126.449219 116.179688 122.421875 102.53125 C 127.542969 106.777344 131.355469 114.8125 129.914062 121.539062 C 128.789062 126.546875 121.953125 125.1875 123.300781 120.003906 C 119.804688 120.996094 116.617188 123.066406 113.519531 124.972656 C 113.519531 124.976562 113.519531 124.984375 113.523438 124.988281 C 113.519531 124.984375 113.515625 124.980469 113.507812 124.976562 C 113.480469 124.984375 113.445312 124.992188 113.414062 125.003906 C 113.421875 124.988281 113.421875 124.957031 113.433594 124.949219 Z M 112.640625 136.457031 C 115.550781 135.941406 130.660156 135.984375 132.054688 136.519531 C 125.519531 137.175781 119.085938 137.265625 112.640625 136.457031 Z M 115.597656 191.792969 C 112.503906 191.269531 109.441406 190.828125 106.453125 189.871094 C 112.785156 190.1875 119.050781 190.960938 125.40625 190.566406 C 129.1875 190.441406 132.726562 189.832031 136.558594 189.890625 C 136.289062 190.308594 135.945312 190.332031 135.652344 190.429688 C 129.183594 192.363281 122.269531 192.675781 115.597656 191.792969 Z M 115.597656 191.792969 " fill-opacity="1" fill-rule="nonzero"/></g><g clip-path="url(#2af4902d86)"><path fill="#c2af9e" d="M 120.777344 217.222656 C 110.316406 216.980469 99.132812 216.9375 89.601562 212.128906 C 89.035156 211.832031 88.121094 211.292969 87.667969 211.992188 C 87.527344 212.21875 87.507812 212.480469 87.519531 212.730469 C 87.59375 213.988281 87.484375 215.238281 87.484375 216.492188 C 87.484375 217.566406 87.804688 218.539062 88.460938 219.40625 C 93.042969 224.3125 101.367188 225.167969 107.699219 226.234375 C 112.042969 226.847656 116.429688 227.058594 120.8125 227.214844 C 121.355469 227.234375 121.359375 227.21875 121.359375 226.714844 C 121.359375 225.226562 121.359375 223.742188 121.359375 222.253906 C 121.367188 222.253906 121.378906 222.253906 121.390625 222.253906 C 121.390625 220.769531 121.390625 219.285156 121.394531 217.796875 C 121.398438 217.210938 121.40625 217.214844 120.777344 217.222656 Z M 120.777344 217.222656 " fill-opacity="1" fill-rule="nonzero"/></g><path fill="#c2af9e" d="M 160.359375 66.101562 C 161.21875 65.824219 162.074219 65.542969 162.9375 65.269531 C 164.601562 64.789062 166.363281 64.109375 167.976562 63.726562 C 167.992188 63.742188 167.925781 63.820312 167.902344 63.871094 C 166.242188 66.261719 164.5625 68.644531 162.980469 71.089844 C 162.558594 71.75 162.8125 72.210938 163.59375 72.265625 C 166.320312 72.3125 169.054688 72.261719 171.78125 72.277344 C 171.785156 72.078125 171.785156 72.078125 171.785156 72.273438 C 174.53125 72.167969 177.320312 72.3125 180.050781 72.078125 C 180.746094 71.859375 180.175781 71.144531 179.933594 70.761719 C 178.34375 68.5625 176.90625 66.257812 175.257812 64.101562 C 175.183594 64.003906 175.042969 63.914062 175.132812 63.734375 C 177.839844 64.597656 180.542969 65.476562 183.273438 66.25 C 183.9375 66.433594 184.101562 66.277344 184.152344 65.59375 C 184.136719 61.46875 184.171875 57.332031 184.082031 53.207031 C 183.996094 52.46875 183.15625 52.867188 182.691406 52.972656 C 180.109375 53.78125 177.632812 54.601562 175.089844 55.570312 C 176.710938 53.101562 178.394531 50.890625 179.871094 48.371094 C 180.136719 47.949219 180.5625 47.167969 179.800781 47.015625 C 177.144531 46.957031 174.46875 47.082031 171.804688 47.089844 C 171.796875 47.277344 171.796875 47.277344 171.800781 47.089844 C 169.019531 47.078125 166.230469 46.992188 163.449219 47.023438 C 162.277344 47.246094 163.132812 48.421875 163.523438 49.003906 C 164.890625 51.179688 166.613281 53.246094 167.804688 55.464844 C 165.03125 54.636719 162.324219 53.523438 159.511719 52.808594 C 159.070312 52.746094 158.863281 52.914062 158.792969 53.351562 C 158.753906 57.175781 158.804688 61.007812 158.792969 64.839844 C 158.699219 66.097656 159.121094 66.574219 160.359375 66.101562 Z M 160.359375 66.101562 " fill-opacity="1" fill-rule="nonzero"/><g clip-path="url(#110808c3bd)"><path fill="#c2af9e" d="M 222.230469 214.53125 C 227.796875 214.554688 257.15625 215.015625 256.347656 207.222656 C 255.726562 202.171875 250.28125 200.398438 246.464844 198.183594 C 244.324219 196.816406 242.101562 194.480469 242.734375 191.710938 C 243.335938 189.628906 241.777344 187.640625 239.839844 186.941406 C 239.097656 186.585938 238.441406 186.144531 237.960938 185.449219 C 231.617188 174.980469 230.699219 162.199219 229.5625 150.273438 C 229.523438 149.789062 229.53125 149.773438 230.015625 149.714844 C 233.300781 149.3125 236.632812 148.988281 239.761719 147.847656 C 242.09375 147.121094 242.976562 144.890625 240.457031 143.640625 C 238.246094 142.566406 235.902344 141.800781 233.597656 140.964844 C 233.125 140.796875 232.519531 140.730469 232.246094 140.339844 C 232 140 232.238281 139.441406 232.207031 138.980469 C 232.183594 138.582031 232.363281 138.464844 232.738281 138.449219 C 233.222656 138.429688 233.707031 138.34375 234.171875 138.1875 C 235.351562 137.8125 235.4375 136.066406 234.191406 135.683594 C 233.183594 135.316406 232.070312 135.304688 231.007812 135.269531 C 241.683594 124.339844 234.382812 112.527344 225.917969 103.007812 C 225.511719 102.511719 225.519531 102.5 225.925781 102.042969 C 229.601562 98.277344 226.824219 91.542969 221.546875 91.511719 C 214.433594 91.003906 211.78125 99.703125 218.050781 103.1875 C 214.609375 107.03125 210.71875 110.441406 208.261719 115.019531 C 204.21875 121.621094 205.914062 130.007812 211.585938 135.089844 C 210.578125 135.386719 209.710938 135.195312 208.746094 135.5625 C 208.125 135.777344 207.851562 136.117188 207.820312 136.757812 C 207.78125 137.570312 207.933594 137.820312 208.660156 138.152344 C 209.023438 138.320312 209.40625 138.390625 209.800781 138.4375 C 210.050781 138.46875 210.359375 138.332031 210.539062 138.492188 C 210.777344 138.734375 210.617188 139.175781 210.6875 139.496094 C 210.765625 140.636719 210.765625 140.636719 209.6875 141.015625 C 207.089844 142.242188 204 142.707031 201.765625 144.585938 C 201.253906 145.128906 201.210938 146.277344 201.765625 146.75 C 204.75 149.109375 209.269531 149.164062 212.917969 149.65625 C 213.816406 149.742188 213.679688 149.695312 213.65625 150.457031 C 213.546875 157.953125 210.785156 183.734375 203.847656 187.039062 C 203.464844 187.199219 203.109375 187.410156 202.695312 187.515625 C 201.398438 187.746094 204.050781 190.167969 203.40625 193.578125 C 203.003906 203.394531 219.328125 200.46875 221.601562 214.011719 C 221.683594 214.511719 221.6875 214.527344 222.230469 214.53125 Z M 238.039062 199.902344 C 239.367188 199.296875 240.660156 198.648438 240.984375 196.929688 C 242.65625 199.269531 244.558594 201.226562 247.332031 202.15625 C 248.90625 202.800781 250.980469 203.5 251.523438 205.292969 C 252.289062 209.183594 238.523438 210.0625 235.769531 210.050781 C 233.167969 209.96875 230.382812 209.894531 228.050781 208.621094 C 225.164062 206.949219 228.144531 204.011719 230.113281 203.097656 C 232.621094 201.710938 235.394531 200.96875 238.039062 199.902344 Z M 232.492188 187.617188 C 232.601562 187.792969 232.71875 187.8125 232.699219 188.0625 C 228.332031 188.78125 223.957031 188.667969 219.53125 188.492188 C 222.566406 177.542969 221.195312 165.972656 222.203125 154.765625 C 225.71875 165.652344 225.207031 178.210938 232.492188 187.617188 Z M 238.394531 144.238281 C 238.292969 144.527344 238.042969 144.519531 237.847656 144.570312 C 233.214844 145.230469 228.492188 145.023438 223.824219 145.15625 C 223.582031 145.160156 223.367188 145.128906 223.1875 144.949219 C 221.789062 143.582031 220.03125 143.070312 218.164062 142.796875 C 217.917969 142.761719 217.660156 142.765625 217.367188 142.554688 C 220.269531 142.332031 223.097656 142.210938 225.914062 142.023438 C 230.269531 141.683594 234.109375 143.820312 238.394531 144.238281 Z M 217.414062 97.152344 C 217.140625 93.117188 224 92.4375 224.597656 96.910156 C 224.90625 101.496094 217.320312 101.804688 217.414062 97.152344 Z M 213.988281 122.769531 C 216.03125 119.292969 219.667969 117.210938 221.75 113.796875 C 223.5625 110.5 222.941406 106.667969 221.800781 103.269531 C 221.71875 102.984375 221.589844 102.707031 221.671875 102.363281 C 226.898438 107.160156 231.089844 114.65625 229.242188 121.894531 C 228.414062 125.488281 222.828125 125.585938 222.574219 121.644531 C 222.546875 121.023438 222.566406 120.398438 222.566406 119.738281 C 219.058594 121.015625 215.8125 122.722656 212.691406 124.75 C 213.125 124.089844 213.558594 123.429688 213.988281 122.769531 Z M 213.398438 136.652344 C 213.0625 136.632812 212.722656 136.605469 212.253906 136.472656 C 216.574219 136.097656 230.042969 135.777344 232.679688 136.734375 C 226.234375 136.734375 219.835938 137.328125 213.398438 136.652344 Z M 221.246094 192.203125 C 216.347656 191.960938 211.535156 191.054688 206.796875 189.765625 C 213.527344 190.246094 220.046875 190.9375 226.75 190.480469 C 230.210938 190.292969 233.65625 189.816406 237.132812 189.859375 C 237.140625 189.925781 237.148438 189.988281 237.152344 190.054688 C 232.066406 191.796875 226.609375 192.304688 221.246094 192.203125 Z M 221.246094 192.203125 " fill-opacity="1" fill-rule="nonzero"/></g><path fill="#c2af9e" d="M 215.445312 209.261719 C 212.984375 206.652344 209.546875 205.441406 206.464844 203.777344 C 202.574219 201.734375 199.015625 197.757812 199.816406 193.042969 C 200.507812 187.382812 196.074219 188.355469 193.996094 184.9375 C 185.210938 168.464844 183.832031 149.183594 183.191406 130.847656 C 183.085938 130.820312 182.984375 130.808594 182.878906 130.808594 C 182.984375 130.808594 183.089844 130.820312 183.191406 130.847656 C 183.492188 130.511719 183.917969 130.585938 184.292969 130.539062 C 186.617188 130.234375 188.953125 130.019531 191.25 129.554688 C 194.589844 128.929688 203.535156 127.210938 199.699219 122.296875 C 199.21875 121.824219 198.683594 121.425781 198.070312 121.121094 C 194.742188 119.566406 191.226562 118.4375 187.691406 117.453125 C 187.058594 117.335938 187.398438 116.21875 187.347656 115.71875 C 187.1875 114.308594 187.355469 114.269531 188.742188 114.25 C 189.296875 114.195312 189.851562 114.144531 190.378906 113.949219 C 192.476562 113.109375 191.765625 110.214844 189.582031 109.898438 C 188.832031 109.738281 188.066406 109.6875 187.300781 109.640625 C 187.050781 109.625 186.914062 109.570312 186.96875 109.269531 C 188.066406 102 190.917969 95.105469 193.769531 88.371094 C 194.726562 86.210938 195.785156 84.09375 196.796875 81.957031 C 197.890625 80.101562 197.6875 78.066406 195.214844 77.574219 C 182.597656 75.496094 169.683594 75.707031 156.949219 76.457031 C 154.144531 76.664062 151.359375 76.996094 148.589844 77.453125 C 146.136719 77.789062 144.945312 79.410156 146.292969 81.691406 C 149.808594 88.785156 152.800781 96.140625 155.003906 103.753906 C 155.503906 105.488281 155.957031 107.242188 156.152344 109.046875 C 156.210938 109.59375 156.199219 109.59375 155.632812 109.652344 C 154.175781 109.785156 152.097656 109.949219 151.800781 111.726562 C 151.488281 113.847656 153.820312 114.363281 155.5 114.25 C 155.796875 114.25 155.910156 114.351562 155.898438 114.65625 C 155.878906 115.421875 155.882812 116.1875 155.878906 116.953125 C 155.878906 117.167969 155.898438 117.402344 155.617188 117.445312 C 154.722656 117.8125 153.753906 117.988281 152.835938 118.339844 C 151.828125 118.847656 150.679688 118.929688 149.65625 119.410156 C 147.429688 120.347656 144.746094 120.871094 143.132812 122.800781 C 139.992188 128.285156 152.570312 129.59375 155.898438 130.117188 C 157.117188 130.277344 158.339844 130.410156 159.558594 130.574219 C 160.078125 130.644531 160.085938 130.667969 160.078125 131.1875 C 160.019531 138.105469 159.589844 145.011719 158.792969 151.882812 C 157.375 163.140625 155.082031 174.566406 149.6875 184.652344 C 148.28125 187.730469 145.429688 187.074219 144.0625 189.785156 C 142.191406 193.835938 145.753906 194.820312 141.058594 200.597656 C 136.421875 205.886719 126.601562 206.269531 125.257812 214.308594 C 122.492188 225.550781 164.429688 225.59375 171.851562 225.5625 C 171.851562 225.558594 171.851562 225.554688 171.851562 225.554688 C 184.507812 225.625 197.402344 225.164062 209.667969 221.785156 C 213.109375 220.617188 218.449219 219.28125 218 214.6875 C 217.828125 212.558594 216.894531 210.789062 215.445312 209.261719 Z M 186.808594 188.160156 C 181.898438 189.359375 176.800781 189.152344 171.785156 189.199219 C 171.785156 189.203125 171.785156 189.203125 171.785156 189.207031 C 170.578125 189.113281 169.308594 189.308594 168.136719 189.019531 C 172.722656 172.988281 170.707031 155.84375 171.882812 139.40625 C 177.367188 155.3125 175.589844 174.484375 186.808594 188.160156 Z M 181.285156 127.492188 C 180.40625 127.789062 177.144531 129.046875 178.71875 130.175781 C 179.339844 130.660156 180.058594 130.914062 180.84375 130.945312 C 181.273438 130.957031 181.710938 130.984375 182.140625 130.933594 C 181.707031 130.984375 181.273438 130.964844 180.839844 130.945312 C 180.058594 130.917969 179.339844 130.660156 178.71875 130.175781 C 177.132812 129.054688 180.421875 127.777344 181.285156 127.492188 C 182.238281 127.109375 183.652344 126.824219 185.238281 126.570312 C 183.910156 126.8125 182.585938 127.101562 181.285156 127.492188 Z M 196.128906 123.941406 C 195.683594 124.691406 193.597656 125.203125 192.449219 125.429688 C 194.152344 125.066406 195.527344 124.601562 196.128906 123.941406 C 196.132812 123.84375 196.105469 123.773438 196.0625 123.710938 C 196.105469 123.773438 196.132812 123.847656 196.128906 123.941406 Z M 195.386719 123.289062 C 194.203125 122.761719 192.984375 122.316406 191.746094 121.921875 C 192.984375 122.308594 194.203125 122.75 195.386719 123.289062 Z M 194.375 123.046875 C 194.242188 123.210938 194.105469 123.253906 193.957031 123.28125 C 190.808594 123.847656 187.574219 123.550781 184.390625 123.765625 C 181.359375 123.878906 178.324219 123.960938 175.292969 123.949219 C 173.921875 124.054688 173.195312 122.730469 171.984375 122.355469 C 171.984375 122.355469 171.984375 122.359375 171.984375 122.363281 C 170.199219 121.351562 168.269531 120.785156 166.246094 120.480469 C 165.757812 120.40625 165.238281 120.453125 164.65625 120.140625 C 167.132812 119.640625 169.410156 119.875 171.859375 119.644531 C 171.859375 119.640625 171.859375 119.640625 171.859375 119.636719 C 176.011719 119.699219 180.195312 118.949219 184.265625 119.953125 C 184.339844 120.101562 184.480469 120.089844 184.617188 120.082031 C 184.570312 120.027344 184.519531 119.984375 184.460938 119.960938 C 184.519531 119.984375 184.570312 120.027344 184.617188 120.082031 C 185.242188 120.238281 185.871094 120.394531 186.5 120.542969 C 186.007812 120.433594 185.519531 120.324219 185.03125 120.21875 C 188.082031 121.382812 191.285156 121.972656 194.375 123.046875 Z M 183.171875 119.207031 C 183.398438 119.386719 183.640625 119.542969 183.898438 119.667969 C 184.03125 119.746094 184.207031 119.769531 184.265625 119.945312 C 184.203125 119.769531 184.027344 119.742188 183.898438 119.667969 C 183.636719 119.542969 183.398438 119.386719 183.171875 119.207031 Z M 157.535156 110.820312 C 157.699219 110.613281 157.832031 110.636719 157.949219 110.617188 C 162.546875 110.011719 177.195312 110.160156 179.871094 110.125 C 180.566406 110.113281 181.179688 109.792969 181.648438 109.25 C 181.648438 109.253906 181.648438 109.253906 181.652344 109.257812 C 182.011719 109.285156 186.574219 110.921875 185.164062 111.316406 C 184.429688 112.042969 184.429688 112.035156 185.160156 111.3125 C 180.695312 111.222656 176.238281 111.859375 171.765625 111.761719 C 171.765625 111.765625 171.765625 111.765625 171.765625 111.769531 C 166.980469 111.722656 162.3125 111.175781 157.535156 110.820312 Z M 171.835938 194.589844 C 171.835938 194.59375 171.835938 194.59375 171.835938 194.597656 C 164.351562 194.117188 156.796875 193.328125 149.835938 190.34375 C 157.15625 190.8125 164.394531 191.875 171.753906 191.675781 C 171.753906 191.671875 171.753906 191.671875 171.753906 191.671875 C 176.53125 191.796875 181.296875 191.316406 186.046875 190.90625 C 188.195312 190.695312 190.351562 190.632812 192.507812 190.53125 C 192.75 190.519531 193.007812 190.5 193.277344 190.648438 C 188.050781 194.046875 178.085938 194.285156 171.835938 194.589844 Z M 212.21875 214.511719 C 207.605469 219.277344 185.902344 221.082031 180.382812 217.191406 C 175.605469 213.558594 182.652344 209.386719 185.9375 208.125 C 189.355469 206.640625 193.097656 205.886719 196.292969 203.921875 C 196.859375 203.5625 197.234375 203.101562 197.195312 202.386719 C 197.1875 202.304688 197.238281 202.214844 197.304688 201.96875 C 200.195312 204.003906 202.464844 206.707031 205.8125 207.976562 C 208.285156 209.132812 211.738281 209.949219 212.605469 212.886719 C 212.746094 213.507812 212.613281 214.039062 212.21875 214.511719 Z M 212.21875 214.511719 " fill-opacity="1" fill-rule="nonzero"/><g clip-path="url(#b270fc2705)"><path fill="#c2af9e" d="M 217.679688 221.527344 C 217.652344 221.203125 217.757812 220.386719 217.21875 220.683594 C 215.191406 221.664062 213.121094 222.539062 211.011719 223.324219 C 198.484375 227.898438 185.003906 228.910156 171.773438 229.3125 C 156.589844 228.789062 140.417969 228.457031 126.792969 221.003906 C 126.074219 220.734375 125.496094 221.089844 125.378906 221.855469 C 125.386719 225.621094 124.679688 229.929688 127.753906 232.753906 C 137.261719 241.269531 159.304688 242.464844 171.839844 242.785156 C 171.796875 240.558594 171.800781 240.558594 171.839844 242.785156 C 186.0625 242.507812 201.558594 241.800781 213.933594 234.066406 C 218.507812 231.136719 217.773438 226.269531 217.679688 221.527344 Z M 217.679688 221.527344 " fill-opacity="1" fill-rule="nonzero"/></g><g clip-path="url(#6fa1fdf019)"><path fill="#c2af9e" d="M 255.828125 211.214844 C 245.4375 216.179688 233.625 217.101562 222.265625 217.417969 C 221.730469 217.441406 221.730469 217.433594 221.710938 217.945312 C 221.710938 220.914062 221.738281 223.886719 221.746094 226.859375 C 221.738281 227.097656 221.863281 227.191406 222.089844 227.179688 C 224.960938 227.03125 227.835938 226.921875 230.703125 226.683594 C 238.585938 225.804688 247.105469 225.070312 253.867188 220.570312 C 255.273438 219.484375 256.074219 218.078125 256.070312 216.277344 C 256.0625 214.859375 256.011719 213.445312 255.972656 212.03125 C 255.972656 211.777344 256.003906 211.519531 255.828125 211.214844 Z M 255.828125 211.214844 " fill-opacity="1" fill-rule="nonzero"/></g><path fill="#ffffff" d="M 184.265625 119.949219 C 184.265625 119.945312 184.265625 119.945312 184.265625 119.945312 L 184.261719 119.945312 Z M 184.265625 119.949219 " fill-opacity="1" fill-rule="nonzero"/><path fill="#ffffff" d="M 199.699219 122.296875 C 199.21875 121.824219 198.683594 121.425781 198.070312 121.121094 C 194.742188 119.566406 191.226562 118.4375 187.691406 117.453125 C 187.058594 117.335938 187.398438 116.21875 187.347656 115.71875 C 187.1875 114.308594 187.355469 114.269531 188.742188 114.25 C 189.296875 114.195312 189.851562 114.144531 190.378906 113.949219 C 192.476562 113.109375 191.765625 110.214844 189.582031 109.898438 C 188.832031 109.738281 188.066406 109.6875 187.300781 109.640625 C 187.050781 109.625 186.914062 109.570312 186.96875 109.269531 C 188.066406 102 190.917969 95.105469 193.769531 88.371094 C 194.726562 86.210938 195.785156 84.09375 196.796875 81.957031 C 197.890625 80.101562 197.6875 78.066406 195.214844 77.574219 C 182.597656 75.496094 169.683594 75.707031 156.949219 76.457031 C 154.144531 76.664062 151.359375 76.996094 148.589844 77.453125 C 146.136719 77.789062 144.945312 79.410156 146.292969 81.691406 C 149.808594 88.785156 152.800781 96.140625 155.003906 103.753906 C 155.503906 105.488281 155.957031 107.242188 156.152344 109.046875 C 156.210938 109.59375 156.199219 109.59375 155.632812 109.652344 C 154.175781 109.785156 152.097656 109.949219 151.800781 111.726562 C 151.488281 113.847656 153.820312 114.363281 155.5 114.25 C 155.796875 114.25 155.910156 114.351562 155.898438 114.65625 C 155.878906 115.421875 155.882812 116.1875 155.878906 116.953125 C 155.878906 117.167969 155.898438 117.402344 155.617188 117.445312 C 154.722656 117.8125 153.753906 117.988281 152.835938 118.339844 C 151.828125 118.847656 150.679688 118.929688 149.65625 119.410156 C 147.429688 120.347656 144.746094 120.871094 143.132812 122.800781 C 139.992188 128.285156 152.570312 129.59375 155.898438 130.117188 C 157.117188 130.277344 158.339844 130.410156 159.558594 130.574219 C 160.078125 130.644531 160.085938 130.667969 160.078125 131.1875 C 160.019531 138.105469 159.589844 145.011719 158.792969 151.882812 C 157.375 163.140625 155.082031 174.566406 149.6875 184.652344 C 148.28125 187.730469 145.429688 187.074219 144.0625 189.785156 C 142.191406 193.835938 145.753906 194.820312 141.058594 200.597656 C 136.421875 205.886719 126.601562 206.269531 125.257812 214.308594 C 122.492188 225.550781 164.429688 225.59375 171.851562 225.5625 C 171.789062 215.242188 171.835938 204.917969 171.835938 194.597656 C 164.355469 194.117188 156.796875 193.328125 149.835938 190.34375 C 157.15625 190.8125 164.394531 191.875 171.753906 191.675781 C 171.746094 190.855469 171.707031 190.027344 171.789062 189.207031 C 170.582031 189.113281 169.308594 189.308594 168.136719 189.019531 C 172.722656 172.988281 170.707031 155.84375 171.882812 139.40625 C 171.945312 133.75 171.59375 127.957031 171.984375 122.363281 C 170.199219 121.351562 168.269531 120.785156 166.246094 120.480469 C 165.757812 120.40625 165.238281 120.453125 164.65625 120.140625 C 167.132812 119.640625 169.410156 119.875 171.859375 119.644531 C 171.789062 117.019531 171.902344 114.394531 171.769531 111.769531 C 166.984375 111.722656 162.3125 111.175781 157.535156 110.820312 C 157.699219 110.613281 157.832031 110.636719 157.949219 110.617188 C 162.546875 110.011719 167.234375 110.371094 171.839844 110.117188 C 171.839844 99.972656 171.835938 89.828125 171.835938 79.683594 C 171.835938 78.773438 171.761719 78.792969 172.703125 78.839844 C 179.085938 79.15625 185.464844 79.730469 191.832031 80.28125 C 188.972656 87.71875 186.371094 95.40625 184.359375 103.191406 C 183.824219 105.027344 183.085938 106.773438 181.957031 108.335938 C 181.773438 108.59375 181.425781 108.84375 181.652344 109.257812 C 182.011719 109.285156 186.574219 110.921875 185.164062 111.316406 C 184.429688 112.042969 183.398438 112.40625 182.636719 113.128906 C 180.390625 114.957031 181.5625 118.53125 183.898438 119.667969 C 184.03125 119.746094 184.207031 119.769531 184.265625 119.945312 C 184.414062 119.914062 184.527344 119.972656 184.617188 120.082031 C 188.246094 121 192.019531 121.734375 195.457031 123.320312 C 195.695312 123.5 196.144531 123.570312 196.128906 123.941406 C 195.628906 124.78125 193.050781 125.328125 192.0625 125.5 C 188.46875 126.128906 184.792969 126.433594 181.285156 127.492188 C 180.40625 127.789062 177.144531 129.046875 178.71875 130.175781 C 179.339844 130.660156 180.058594 130.914062 180.84375 130.945312 C 181.417969 130.964844 182 131.003906 182.570312 130.847656 C 182.777344 130.792969 182.984375 130.796875 183.191406 130.847656 C 183.492188 130.511719 183.917969 130.585938 184.292969 130.539062 C 186.617188 130.234375 188.953125 130.019531 191.25 129.554688 C 194.589844 128.929688 203.535156 127.210938 199.699219 122.296875 Z M 199.699219 122.296875 " fill-opacity="1" fill-rule="nonzero"/><path fill="#ffffff" d="M 113.507812 124.976562 C 113.511719 124.976562 113.515625 124.972656 113.519531 124.972656 C 113.507812 124.945312 113.492188 124.929688 113.472656 124.929688 C 113.480469 124.945312 113.492188 124.960938 113.507812 124.976562 Z M 113.507812 124.976562 " fill-opacity="1" fill-rule="nonzero"/><g clip-path="url(#c62257d884)"><path fill="#ffffff" d="M 126.714844 205.480469 C 129.40625 203.253906 132.660156 202.003906 135.707031 200.378906 C 138 199.035156 140.21875 196.589844 139.921875 193.761719 C 139.609375 191.960938 139.898438 190.253906 140.664062 188.609375 C 141.085938 187.703125 141.085938 187.691406 140.171875 187.328125 C 134.792969 185.304688 132.320312 172.082031 131.191406 166.789062 C 130.183594 161.308594 129.691406 155.753906 129.335938 150.199219 C 129.3125 149.875 129.40625 149.765625 129.738281 149.726562 C 133.566406 149.214844 137.699219 149.171875 141.136719 147.214844 C 143.351562 145.667969 141.417969 143.789062 139.539062 143.199219 C 137.609375 142.410156 135.640625 141.710938 133.667969 141.035156 C 133.234375 140.886719 132.65625 140.914062 132.410156 140.53125 C 132.15625 140.132812 132.328125 139.582031 132.328125 139.101562 C 132.328125 138.578125 132.339844 138.566406 132.855469 138.515625 C 133.363281 138.464844 133.878906 138.449219 134.371094 138.300781 C 135.425781 138.003906 135.730469 136.492188 134.851562 135.835938 C 133.976562 135.207031 132.78125 135.347656 131.75 135.277344 C 131.605469 135.277344 131.417969 135.355469 131.296875 135.097656 C 142.085938 125.097656 134.863281 111.972656 126.59375 103.101562 C 126.175781 102.636719 126.273438 102.671875 126.589844 102.316406 C 129.316406 99.488281 129.074219 94.609375 125.535156 92.578125 C 117.988281 88.503906 111.460938 98.292969 118.886719 103.324219 C 117.027344 105.410156 114.980469 107.347656 113.167969 109.5 C 111.679688 110.886719 110.617188 112.605469 109.488281 114.285156 C 104.9375 121.046875 105.800781 129.851562 112.230469 135.105469 C 110.980469 135.394531 108.746094 135.089844 108.269531 136.449219 C 108.078125 137.09375 108.417969 137.6875 108.859375 138.167969 C 109.382812 138.683594 110.25 138.34375 110.941406 138.441406 C 111.0625 139.023438 111.007812 139.601562 111.03125 140.175781 C 111.054688 140.714844 111.023438 140.738281 110.519531 140.921875 C 108.152344 141.800781 105.792969 142.695312 103.449219 143.640625 C 100.878906 144.722656 101.246094 146.867188 103.660156 147.824219 C 106.699219 149.097656 110.011719 149.3125 113.246094 149.734375 C 113.625 149.777344 113.707031 149.917969 113.667969 150.265625 C 113.027344 160 112 169.847656 108.773438 179.113281 C 107.503906 182.039062 106.613281 186.019531 103.304688 187.230469 C 102.898438 187.367188 102.507812 187.578125 102.171875 187.875 C 99.652344 190.117188 101.339844 191.574219 100.632812 193.988281 C 99.601562 196.816406 97.042969 198.507812 94.429688 199.71875 C 91.71875 201.078125 88.746094 202.742188 87.582031 205.707031 C 83.65625 215.363281 115.28125 214.492188 120.835938 214.503906 C 121.199219 214.492188 121.425781 214.492188 121.535156 214.019531 C 122.179688 210.558594 123.957031 207.644531 126.714844 205.480469 Z M 130.695312 185.632812 C 131.21875 186.445312 131.832031 187.203125 132.457031 188.054688 C 127.992188 188.835938 123.554688 188.574219 119.054688 188.570312 C 120.1875 185.339844 120.621094 182.15625 120.855469 178.808594 C 121.304688 170.785156 121.636719 162.765625 121.820312 154.726562 C 125.378906 164.703125 124.660156 176.425781 130.695312 185.632812 Z M 137.246094 144.984375 C 137.414062 145.039062 137.578125 145.117188 137.742188 145.183594 C 133.144531 145.246094 128.597656 145.195312 124.007812 145.167969 C 123.644531 145.167969 123.367188 145.097656 123.085938 144.8125 C 121.59375 143.164062 119.398438 143.414062 117.527344 142.671875 C 121.546875 142.46875 125.691406 142.03125 129.683594 142.40625 C 132.1875 143.324219 134.707031 144.179688 137.246094 144.984375 Z M 120.128906 94.847656 C 121.875 93.402344 124.890625 94.457031 125.101562 96.78125 C 125.332031 98.394531 124.105469 99.746094 122.109375 99.753906 C 119.8125 99.742188 117.921875 96.535156 120.128906 94.847656 Z M 122.414062 102.523438 C 122.367188 102.570312 122.3125 102.46875 122.386719 102.472656 C 122.476562 102.472656 122.359375 102.464844 122.414062 102.523438 Z M 113.433594 124.949219 C 113.449219 124.9375 113.460938 124.933594 113.472656 124.933594 C 118.617188 115.222656 126.453125 116.183594 122.421875 102.53125 C 127.542969 106.777344 131.355469 114.8125 129.914062 121.539062 C 128.789062 126.546875 121.953125 125.1875 123.300781 120.003906 C 119.804688 120.996094 116.617188 123.066406 113.519531 124.972656 C 113.519531 124.976562 113.519531 124.984375 113.523438 124.988281 C 113.519531 124.984375 113.515625 124.980469 113.507812 124.976562 C 113.480469 124.984375 113.445312 124.992188 113.414062 125.003906 C 113.421875 124.988281 113.421875 124.957031 113.433594 124.949219 Z M 112.640625 136.457031 C 115.550781 135.941406 130.660156 135.984375 132.054688 136.519531 C 125.519531 137.175781 119.085938 137.265625 112.640625 136.457031 Z M 115.597656 191.792969 C 112.503906 191.269531 109.441406 190.828125 106.453125 189.871094 C 112.785156 190.1875 119.050781 190.960938 125.40625 190.566406 C 129.1875 190.441406 132.726562 189.832031 136.558594 189.890625 C 136.289062 190.308594 135.945312 190.332031 135.652344 190.429688 C 129.183594 192.363281 122.269531 192.675781 115.597656 191.792969 Z M 115.597656 191.792969 " fill-opacity="1" fill-rule="nonzero"/></g><g clip-path="url(#fa46cd4895)"><path fill="#ffffff" d="M 171.746094 230.769531 C 171.746094 230.28125 171.761719 229.796875 171.769531 229.3125 C 156.589844 228.789062 140.417969 228.457031 126.792969 221.003906 C 126.074219 220.734375 125.496094 221.089844 125.378906 221.855469 C 125.386719 225.621094 124.679688 229.929688 127.753906 232.753906 C 137.261719 241.269531 159.300781 242.464844 171.835938 242.785156 C 171.757812 238.78125 171.71875 234.773438 171.746094 230.769531 Z M 171.746094 230.769531 " fill-opacity="1" fill-rule="nonzero"/></g><g clip-path="url(#638f731080)"><path fill="#ffffff" d="M 120.777344 217.222656 C 110.316406 216.980469 99.132812 216.9375 89.601562 212.128906 C 89.035156 211.832031 88.121094 211.292969 87.667969 211.992188 C 87.527344 212.21875 87.507812 212.480469 87.519531 212.730469 C 87.59375 213.988281 87.484375 215.238281 87.484375 216.492188 C 87.484375 217.566406 87.804688 218.539062 88.460938 219.40625 C 93.042969 224.3125 101.367188 225.167969 107.699219 226.234375 C 112.042969 226.847656 116.429688 227.058594 120.8125 227.214844 C 121.355469 227.234375 121.359375 227.21875 121.359375 226.714844 C 121.359375 225.226562 121.359375 223.742188 121.359375 222.253906 C 121.367188 222.253906 121.378906 222.253906 121.390625 222.253906 C 121.390625 220.769531 121.390625 219.285156 121.394531 217.796875 C 121.398438 217.210938 121.40625 217.214844 120.777344 217.222656 Z M 120.777344 217.222656 " fill-opacity="1" fill-rule="nonzero"/></g><path fill="#ffffff" d="M 158.792969 64.839844 C 158.699219 66.097656 159.121094 66.574219 160.359375 66.101562 C 161.21875 65.824219 162.074219 65.542969 162.9375 65.269531 C 164.601562 64.789062 166.363281 64.109375 167.976562 63.726562 C 167.992188 63.742188 167.925781 63.820312 167.902344 63.871094 C 166.242188 66.261719 164.5625 68.644531 162.980469 71.089844 C 162.558594 71.75 162.8125 72.210938 163.59375 72.265625 C 166.320312 72.3125 169.054688 72.261719 171.78125 72.277344 C 171.980469 63.882812 171.605469 55.484375 171.800781 47.089844 C 169.019531 47.078125 166.230469 46.992188 163.449219 47.023438 C 162.277344 47.246094 163.132812 48.421875 163.523438 49.003906 C 164.890625 51.179688 166.613281 53.246094 167.804688 55.464844 C 165.03125 54.636719 162.324219 53.523438 159.511719 52.808594 C 159.070312 52.746094 158.863281 52.914062 158.792969 53.351562 C 158.753906 57.175781 158.804688 61.007812 158.792969 64.839844 Z M 158.792969 64.839844 " fill-opacity="1" fill-rule="nonzero"/><g clip-path="url(#c3290431d9)"><path fill="#c2af9e" d="M 222.230469 214.53125 C 227.796875 214.554688 257.15625 215.015625 256.347656 207.222656 C 255.726562 202.171875 250.28125 200.398438 246.464844 198.183594 C 244.324219 196.816406 242.101562 194.480469 242.734375 191.710938 C 243.335938 189.628906 241.777344 187.640625 239.839844 186.941406 C 239.097656 186.585938 238.441406 186.144531 237.960938 185.449219 C 231.617188 174.980469 230.699219 162.199219 229.5625 150.273438 C 229.523438 149.789062 229.53125 149.773438 230.015625 149.714844 C 233.300781 149.3125 236.632812 148.988281 239.761719 147.847656 C 242.09375 147.121094 242.976562 144.890625 240.457031 143.640625 C 238.246094 142.566406 235.902344 141.800781 233.597656 140.964844 C 233.125 140.796875 232.519531 140.730469 232.246094 140.339844 C 232 140 232.238281 139.441406 232.207031 138.980469 C 232.183594 138.582031 232.363281 138.464844 232.738281 138.449219 C 233.222656 138.429688 233.707031 138.34375 234.171875 138.1875 C 235.351562 137.8125 235.4375 136.066406 234.191406 135.683594 C 233.183594 135.316406 232.070312 135.304688 231.007812 135.269531 C 241.683594 124.339844 234.382812 112.527344 225.917969 103.007812 C 225.511719 102.511719 225.519531 102.5 225.925781 102.042969 C 229.601562 98.277344 226.824219 91.542969 221.546875 91.511719 C 214.433594 91.003906 211.78125 99.703125 218.050781 103.1875 C 214.609375 107.03125 210.71875 110.441406 208.261719 115.019531 C 204.21875 121.621094 205.914062 130.007812 211.585938 135.089844 C 210.578125 135.386719 209.710938 135.195312 208.746094 135.5625 C 208.125 135.777344 207.851562 136.117188 207.820312 136.757812 C 207.78125 137.570312 207.933594 137.820312 208.660156 138.152344 C 209.023438 138.320312 209.40625 138.390625 209.800781 138.4375 C 210.050781 138.46875 210.359375 138.332031 210.539062 138.492188 C 210.777344 138.734375 210.617188 139.175781 210.6875 139.496094 C 210.765625 140.636719 210.765625 140.636719 209.6875 141.015625 C 207.089844 142.242188 204 142.707031 201.765625 144.585938 C 201.253906 145.128906 201.210938 146.277344 201.765625 146.75 C 204.75 149.109375 209.269531 149.164062 212.917969 149.65625 C 213.816406 149.742188 213.679688 149.695312 213.65625 150.457031 C 213.546875 157.953125 210.785156 183.734375 203.847656 187.039062 C 203.464844 187.199219 203.109375 187.410156 202.695312 187.515625 C 201.398438 187.746094 204.050781 190.167969 203.40625 193.578125 C 203.003906 203.394531 219.328125 200.46875 221.601562 214.011719 C 221.683594 214.511719 221.6875 214.527344 222.230469 214.53125 Z M 238.039062 199.902344 C 239.367188 199.296875 240.660156 198.648438 240.984375 196.929688 C 242.65625 199.269531 244.558594 201.226562 247.332031 202.15625 C 248.90625 202.800781 250.980469 203.5 251.523438 205.292969 C 252.289062 209.183594 238.523438 210.0625 235.769531 210.050781 C 233.167969 209.96875 230.382812 209.894531 228.050781 208.621094 C 225.164062 206.949219 228.144531 204.011719 230.113281 203.097656 C 232.621094 201.710938 235.394531 200.96875 238.039062 199.902344 Z M 232.492188 187.617188 C 232.601562 187.792969 232.71875 187.8125 232.699219 188.0625 C 228.332031 188.78125 223.957031 188.667969 219.53125 188.492188 C 222.566406 177.542969 221.195312 165.972656 222.203125 154.765625 C 225.71875 165.652344 225.207031 178.210938 232.492188 187.617188 Z M 238.394531 144.238281 C 238.292969 144.527344 238.042969 144.519531 237.847656 144.570312 C 233.214844 145.230469 228.492188 145.023438 223.824219 145.15625 C 223.582031 145.160156 223.367188 145.128906 223.1875 144.949219 C 221.789062 143.582031 220.03125 143.070312 218.164062 142.796875 C 217.917969 142.761719 217.660156 142.765625 217.367188 142.554688 C 220.269531 142.332031 223.097656 142.210938 225.914062 142.023438 C 230.269531 141.683594 234.109375 143.820312 238.394531 144.238281 Z M 217.414062 97.152344 C 217.140625 93.117188 224 92.4375 224.597656 96.910156 C 224.90625 101.496094 217.320312 101.804688 217.414062 97.152344 Z M 213.988281 122.769531 C 216.03125 119.292969 219.667969 117.210938 221.75 113.796875 C 223.5625 110.5 222.941406 106.667969 221.800781 103.269531 C 221.71875 102.984375 221.589844 102.707031 221.671875 102.363281 C 226.898438 107.160156 231.089844 114.65625 229.242188 121.894531 C 228.414062 125.488281 222.828125 125.585938 222.574219 121.644531 C 222.546875 121.023438 222.566406 120.398438 222.566406 119.738281 C 219.058594 121.015625 215.8125 122.722656 212.691406 124.75 C 213.125 124.089844 213.558594 123.429688 213.988281 122.769531 Z M 213.398438 136.652344 C 213.0625 136.632812 212.722656 136.605469 212.253906 136.472656 C 216.574219 136.097656 230.042969 135.777344 232.679688 136.734375 C 226.234375 136.734375 219.835938 137.328125 213.398438 136.652344 Z M 221.246094 192.203125 C 216.347656 191.960938 211.535156 191.054688 206.796875 189.765625 C 213.527344 190.246094 220.046875 190.9375 226.75 190.480469 C 230.210938 190.292969 233.65625 189.816406 237.132812 189.859375 C 237.140625 189.925781 237.148438 189.988281 237.152344 190.054688 C 232.066406 191.796875 226.609375 192.304688 221.246094 192.203125 Z M 221.246094 192.203125 " fill-opacity="1" fill-rule="nonzero"/></g><path fill="#c2af9e" d="M 215.445312 209.261719 C 212.984375 206.652344 209.546875 205.441406 206.464844 203.777344 C 202.574219 201.734375 199.015625 197.757812 199.816406 193.042969 C 200.507812 187.382812 196.074219 188.355469 193.996094 184.9375 C 185.210938 168.464844 183.832031 149.183594 183.191406 130.847656 C 182.984375 130.796875 182.773438 130.792969 182.570312 130.847656 C 182 131.003906 181.417969 130.964844 180.839844 130.945312 C 180.058594 130.914062 179.339844 130.660156 178.71875 130.175781 C 177.132812 129.054688 180.421875 127.777344 181.28125 127.492188 C 184.746094 126.097656 194.242188 126.03125 196.125 123.9375 C 196.144531 123.570312 195.6875 123.5 195.453125 123.316406 C 192.144531 121.832031 188.542969 120.988281 185.03125 120.21875 C 188.082031 121.382812 191.285156 121.972656 194.375 123.046875 C 194.242188 123.210938 194.105469 123.253906 193.957031 123.28125 C 190.808594 123.847656 187.574219 123.550781 184.390625 123.765625 C 181.359375 123.878906 178.324219 123.960938 175.292969 123.949219 C 173.921875 124.054688 173.195312 122.730469 171.984375 122.355469 C 171.589844 127.949219 171.941406 133.742188 171.882812 139.398438 C 177.367188 155.304688 175.585938 174.480469 186.808594 188.160156 C 181.898438 189.359375 176.800781 189.152344 171.785156 189.199219 C 171.707031 190.023438 171.746094 190.847656 171.75 191.671875 C 176.527344 191.796875 181.296875 191.316406 186.046875 190.90625 C 188.195312 190.695312 190.351562 190.632812 192.507812 190.53125 C 192.75 190.519531 193.007812 190.5 193.277344 190.648438 C 188.050781 194.046875 178.085938 194.285156 171.835938 194.589844 C 171.832031 204.910156 171.785156 215.230469 171.847656 225.554688 C 184.503906 225.625 197.402344 225.164062 209.667969 221.785156 C 213.109375 220.617188 218.449219 219.28125 218 214.6875 C 217.828125 212.558594 216.894531 210.789062 215.445312 209.261719 Z M 212.21875 214.511719 C 207.605469 219.277344 185.902344 221.082031 180.382812 217.191406 C 175.605469 213.558594 182.652344 209.386719 185.9375 208.125 C 189.355469 206.640625 193.097656 205.886719 196.292969 203.921875 C 196.859375 203.5625 197.234375 203.101562 197.195312 202.386719 C 197.1875 202.304688 197.238281 202.214844 197.304688 201.96875 C 200.195312 204.003906 202.464844 206.707031 205.8125 207.976562 C 208.285156 209.132812 211.738281 209.949219 212.605469 212.886719 C 212.746094 213.507812 212.613281 214.039062 212.21875 214.511719 Z M 212.21875 214.511719 " fill-opacity="1" fill-rule="nonzero"/><g clip-path="url(#44eb6b45a4)"><path fill="#c2af9e" d="M 217.679688 221.527344 C 217.652344 221.203125 217.757812 220.386719 217.21875 220.683594 C 215.191406 221.664062 213.121094 222.539062 211.011719 223.324219 C 198.484375 227.898438 185.003906 228.910156 171.777344 229.3125 C 171.695312 233.804688 171.761719 238.296875 171.84375 242.785156 C 186.066406 242.507812 201.558594 241.800781 213.933594 234.066406 C 218.507812 231.136719 217.773438 226.269531 217.679688 221.527344 Z M 217.679688 221.527344 " fill-opacity="1" fill-rule="nonzero"/></g><g clip-path="url(#e7f042269f)"><path fill="#c2af9e" d="M 255.828125 211.214844 C 245.4375 216.179688 233.625 217.101562 222.265625 217.417969 C 221.730469 217.441406 221.730469 217.433594 221.710938 217.945312 C 221.710938 220.914062 221.738281 223.886719 221.746094 226.859375 C 221.738281 227.097656 221.863281 227.191406 222.089844 227.179688 C 224.960938 227.03125 227.835938 226.921875 230.703125 226.683594 C 238.585938 225.804688 247.105469 225.070312 253.867188 220.570312 C 255.273438 219.484375 256.074219 218.078125 256.070312 216.277344 C 256.0625 214.859375 256.011719 213.445312 255.972656 212.03125 C 255.972656 211.777344 256.003906 211.519531 255.828125 211.214844 Z M 255.828125 211.214844 " fill-opacity="1" fill-rule="nonzero"/></g><path fill="#c2af9e" d="M 171.835938 67.277344 C 171.824219 68.941406 171.800781 70.609375 171.785156 72.273438 C 174.53125 72.167969 177.320312 72.3125 180.050781 72.078125 C 180.746094 71.859375 180.175781 71.144531 179.933594 70.761719 C 178.34375 68.5625 176.90625 66.257812 175.257812 64.101562 C 175.183594 64.003906 175.042969 63.914062 175.132812 63.734375 C 177.839844 64.597656 180.542969 65.476562 183.273438 66.25 C 183.9375 66.433594 184.101562 66.277344 184.152344 65.59375 C 184.136719 61.46875 184.171875 57.332031 184.082031 53.207031 C 183.996094 52.46875 183.15625 52.867188 182.691406 52.972656 C 180.109375 53.78125 177.632812 54.601562 175.089844 55.570312 C 176.710938 53.101562 178.394531 50.890625 179.871094 48.371094 C 180.136719 47.949219 180.5625 47.167969 179.800781 47.015625 C 177.144531 46.957031 174.46875 47.082031 171.804688 47.089844 C 171.609375 53.8125 171.914062 60.546875 171.835938 67.277344 Z M 171.835938 67.277344 " fill-opacity="1" fill-rule="nonzero"/><path fill="#c2af9e" d="M 172.703125 78.835938 C 171.761719 78.785156 171.835938 78.765625 171.835938 79.679688 C 171.835938 89.824219 171.839844 99.96875 171.839844 110.113281 C 174.515625 110.195312 177.195312 110.160156 179.871094 110.125 C 180.566406 110.113281 181.179688 109.792969 181.652344 109.25 C 181.425781 108.835938 181.773438 108.582031 181.957031 108.328125 C 183.085938 106.765625 183.824219 105.019531 184.359375 103.179688 C 186.371094 95.402344 188.972656 87.710938 191.832031 80.273438 C 185.464844 79.722656 179.085938 79.148438 172.703125 78.835938 Z M 172.703125 78.835938 " fill-opacity="1" fill-rule="nonzero"/><path fill="#c2af9e" d="M 182.632812 113.121094 C 183.398438 112.398438 184.429688 112.035156 185.160156 111.3125 C 180.695312 111.222656 176.238281 111.859375 171.765625 111.761719 C 171.902344 114.386719 171.785156 117.011719 171.855469 119.636719 C 176.007812 119.699219 180.195312 118.949219 184.265625 119.953125 C 184.339844 120.101562 184.480469 120.089844 184.617188 120.082031 C 184.523438 119.96875 184.410156 119.914062 184.265625 119.945312 C 184.203125 119.769531 184.027344 119.742188 183.894531 119.667969 C 181.5625 118.527344 180.386719 114.949219 182.632812 113.121094 Z M 182.632812 113.121094 " fill-opacity="1" fill-rule="nonzero"/><g fill="#ffffff" fill-opacity="1"><g transform="translate(109.911779, 309.353498)"><g><path d="M 12 -13.40625 L 12.484375 -13.40625 L 12.640625 -9.40625 L 12 -9.40625 C 11.738281 -10.425781 11.242188 -11.222656 10.515625 -11.796875 C 9.785156 -12.378906 8.90625 -12.671875 7.875 -12.671875 C 7.164062 -12.671875 6.53125 -12.53125 5.96875 -12.25 C 5.414062 -11.976562 4.945312 -11.578125 4.5625 -11.046875 C 4.175781 -10.523438 3.878906 -9.882812 3.671875 -9.125 C 3.472656 -8.375 3.375 -7.523438 3.375 -6.578125 C 3.375 -4.710938 3.757812 -3.273438 4.53125 -2.265625 C 5.3125 -1.265625 6.441406 -0.765625 7.921875 -0.765625 C 10.160156 -0.765625 11.597656 -1.953125 12.234375 -4.328125 L 12.953125 -4.328125 L 12.953125 0 L 12.34375 0 L 11.9375 -1.375 C 10.71875 -0.34375 9.242188 0.171875 7.515625 0.171875 C 6.535156 0.171875 5.644531 0.015625 4.84375 -0.296875 C 4.050781 -0.609375 3.375 -1.050781 2.8125 -1.625 C 2.25 -2.195312 1.8125 -2.894531 1.5 -3.71875 C 1.195312 -4.539062 1.046875 -5.457031 1.046875 -6.46875 C 1.046875 -7.53125 1.207031 -8.492188 1.53125 -9.359375 C 1.851562 -10.234375 2.304688 -10.984375 2.890625 -11.609375 C 3.484375 -12.234375 4.1875 -12.71875 5 -13.0625 C 5.820312 -13.40625 6.726562 -13.578125 7.71875 -13.578125 C 8.40625 -13.578125 9.054688 -13.476562 9.671875 -13.28125 C 10.285156 -13.082031 10.953125 -12.765625 11.671875 -12.328125 Z M 12 -13.40625 "/></g></g></g><g fill="#ffffff" fill-opacity="1"><g transform="translate(126.580312, 309.353498)"><g><path d="M 3.625 -2.765625 C 3.625 -2.285156 3.632812 -1.90625 3.65625 -1.625 C 3.675781 -1.351562 3.734375 -1.144531 3.828125 -1 C 3.929688 -0.851562 4.078125 -0.753906 4.265625 -0.703125 C 4.453125 -0.660156 4.710938 -0.628906 5.046875 -0.609375 L 5.046875 0 L 0.421875 0 L 0.421875 -0.609375 C 0.753906 -0.628906 1.019531 -0.660156 1.21875 -0.703125 C 1.414062 -0.753906 1.566406 -0.847656 1.671875 -0.984375 C 1.773438 -1.128906 1.84375 -1.332031 1.875 -1.59375 C 1.90625 -1.851562 1.921875 -2.203125 1.921875 -2.640625 L 1.921875 -9.9375 C 1.921875 -10.625 1.910156 -11.171875 1.890625 -11.578125 C 1.867188 -11.984375 1.835938 -12.289062 1.796875 -12.5 C 1.773438 -12.632812 1.734375 -12.742188 1.671875 -12.828125 C 1.617188 -12.921875 1.539062 -12.992188 1.4375 -13.046875 C 1.332031 -13.097656 1.191406 -13.132812 1.015625 -13.15625 C 0.847656 -13.175781 0.640625 -13.1875 0.390625 -13.1875 L 0.390625 -13.78125 L 3.578125 -14.453125 L 3.578125 -7.8125 L 3.65625 -7.8125 C 3.832031 -8.039062 4.050781 -8.25 4.3125 -8.4375 C 4.570312 -8.632812 4.851562 -8.800781 5.15625 -8.9375 C 5.457031 -9.082031 5.769531 -9.195312 6.09375 -9.28125 C 6.425781 -9.363281 6.75 -9.40625 7.0625 -9.40625 C 7.601562 -9.40625 8.09375 -9.3125 8.53125 -9.125 C 8.976562 -8.9375 9.328125 -8.6875 9.578125 -8.375 C 9.773438 -8.101562 9.914062 -7.75 10 -7.3125 C 10.09375 -6.882812 10.140625 -6.296875 10.140625 -5.546875 L 10.140625 -2.765625 C 10.140625 -2.285156 10.148438 -1.910156 10.171875 -1.640625 C 10.203125 -1.367188 10.265625 -1.15625 10.359375 -1 C 10.460938 -0.851562 10.609375 -0.753906 10.796875 -0.703125 C 10.984375 -0.660156 11.242188 -0.628906 11.578125 -0.609375 L 11.578125 0 L 6.96875 0 L 6.96875 -0.609375 C 7.289062 -0.617188 7.550781 -0.648438 7.75 -0.703125 C 7.945312 -0.753906 8.09375 -0.847656 8.1875 -0.984375 C 8.289062 -1.128906 8.351562 -1.332031 8.375 -1.59375 C 8.40625 -1.851562 8.421875 -2.203125 8.421875 -2.640625 L 8.421875 -4.84375 C 8.421875 -6.132812 8.269531 -7.054688 7.96875 -7.609375 C 7.664062 -8.160156 7.160156 -8.4375 6.453125 -8.4375 C 5.910156 -8.4375 5.414062 -8.296875 4.96875 -8.015625 C 4.519531 -7.742188 4.171875 -7.363281 3.921875 -6.875 C 3.859375 -6.75 3.804688 -6.628906 3.765625 -6.515625 C 3.722656 -6.410156 3.691406 -6.285156 3.671875 -6.140625 C 3.648438 -6.003906 3.632812 -5.84375 3.625 -5.65625 C 3.625 -5.476562 3.625 -5.257812 3.625 -5 Z M 3.625 -2.765625 "/></g></g></g><g fill="#ffffff" fill-opacity="1"><g transform="translate(141.265727, 309.353498)"><g><path d="M 9.09375 -1.625 C 8.101562 -0.425781 6.875 0.171875 5.40625 0.171875 C 4.726562 0.171875 4.109375 0.0625 3.546875 -0.15625 C 2.992188 -0.382812 2.515625 -0.703125 2.109375 -1.109375 C 1.710938 -1.523438 1.40625 -2.019531 1.1875 -2.59375 C 0.96875 -3.175781 0.859375 -3.816406 0.859375 -4.515625 C 0.859375 -5.210938 0.972656 -5.863281 1.203125 -6.46875 C 1.429688 -7.070312 1.753906 -7.585938 2.171875 -8.015625 C 2.597656 -8.453125 3.101562 -8.789062 3.6875 -9.03125 C 4.28125 -9.28125 4.925781 -9.40625 5.625 -9.40625 C 6.75 -9.40625 7.617188 -9.097656 8.234375 -8.484375 C 8.847656 -7.878906 9.15625 -7.003906 9.15625 -5.859375 C 9.15625 -5.703125 9.125 -5.601562 9.0625 -5.5625 C 9 -5.53125 8.847656 -5.515625 8.609375 -5.515625 L 2.890625 -5.515625 C 2.867188 -5.421875 2.847656 -5.304688 2.828125 -5.171875 C 2.816406 -5.046875 2.8125 -4.898438 2.8125 -4.734375 C 2.8125 -4.128906 2.882812 -3.578125 3.03125 -3.078125 C 3.175781 -2.585938 3.382812 -2.171875 3.65625 -1.828125 C 3.9375 -1.484375 4.265625 -1.210938 4.640625 -1.015625 C 5.015625 -0.828125 5.4375 -0.734375 5.90625 -0.734375 C 6.382812 -0.734375 6.832031 -0.835938 7.25 -1.046875 C 7.675781 -1.265625 8.109375 -1.617188 8.546875 -2.109375 Z M 6.21875 -6.3125 C 6.445312 -6.3125 6.628906 -6.316406 6.765625 -6.328125 C 6.910156 -6.347656 7.015625 -6.375 7.078125 -6.40625 C 7.148438 -6.4375 7.195312 -6.484375 7.21875 -6.546875 C 7.25 -6.617188 7.265625 -6.707031 7.265625 -6.8125 C 7.265625 -7.34375 7.09375 -7.765625 6.75 -8.078125 C 6.40625 -8.398438 5.9375 -8.5625 5.34375 -8.5625 C 4.09375 -8.5625 3.316406 -7.8125 3.015625 -6.3125 Z M 6.21875 -6.3125 "/></g></g></g><g fill="#ffffff" fill-opacity="1"><g transform="translate(153.950614, 309.353498)"><g><path d="M 1.5 0 L 1.109375 0 L 1.109375 -3 L 1.546875 -3 C 2.003906 -1.363281 2.828125 -0.546875 4.015625 -0.546875 C 4.484375 -0.546875 4.851562 -0.65625 5.125 -0.875 C 5.394531 -1.101562 5.53125 -1.453125 5.53125 -1.921875 C 5.53125 -2.085938 5.503906 -2.234375 5.453125 -2.359375 C 5.398438 -2.484375 5.300781 -2.609375 5.15625 -2.734375 C 5.007812 -2.867188 4.804688 -3.023438 4.546875 -3.203125 C 4.285156 -3.378906 3.941406 -3.597656 3.515625 -3.859375 C 3.117188 -4.109375 2.773438 -4.335938 2.484375 -4.546875 C 2.191406 -4.753906 1.945312 -4.960938 1.75 -5.171875 C 1.5625 -5.390625 1.414062 -5.617188 1.3125 -5.859375 C 1.21875 -6.109375 1.171875 -6.394531 1.171875 -6.71875 C 1.171875 -7.113281 1.234375 -7.472656 1.359375 -7.796875 C 1.492188 -8.128906 1.675781 -8.410156 1.90625 -8.640625 C 2.144531 -8.878906 2.421875 -9.066406 2.734375 -9.203125 C 3.046875 -9.335938 3.390625 -9.40625 3.765625 -9.40625 C 4.078125 -9.40625 4.398438 -9.351562 4.734375 -9.25 C 5.066406 -9.15625 5.363281 -9.023438 5.625 -8.859375 L 5.96875 -9.21875 L 6.296875 -9.21875 L 6.296875 -6.71875 L 5.84375 -6.71875 C 5.59375 -7.425781 5.316406 -7.929688 5.015625 -8.234375 C 4.710938 -8.535156 4.34375 -8.6875 3.90625 -8.6875 C 3.507812 -8.6875 3.191406 -8.582031 2.953125 -8.375 C 2.710938 -8.164062 2.59375 -7.875 2.59375 -7.5 C 2.59375 -7.300781 2.625 -7.128906 2.6875 -6.984375 C 2.75 -6.835938 2.847656 -6.695312 2.984375 -6.5625 C 3.128906 -6.425781 3.304688 -6.285156 3.515625 -6.140625 C 3.734375 -5.992188 3.992188 -5.828125 4.296875 -5.640625 C 4.796875 -5.328125 5.222656 -5.046875 5.578125 -4.796875 C 5.929688 -4.554688 6.21875 -4.316406 6.4375 -4.078125 C 6.65625 -3.835938 6.816406 -3.585938 6.921875 -3.328125 C 7.023438 -3.078125 7.078125 -2.789062 7.078125 -2.46875 C 7.078125 -1.644531 6.8125 -1 6.28125 -0.53125 C 5.75 -0.0625 5.046875 0.171875 4.171875 0.171875 C 3.265625 0.171875 2.488281 -0.0859375 1.84375 -0.609375 Z M 1.5 0 "/></g></g></g><g fill="#ffffff" fill-opacity="1"><g transform="translate(164.565394, 309.353498)"><g><path d="M 1.5 0 L 1.109375 0 L 1.109375 -3 L 1.546875 -3 C 2.003906 -1.363281 2.828125 -0.546875 4.015625 -0.546875 C 4.484375 -0.546875 4.851562 -0.65625 5.125 -0.875 C 5.394531 -1.101562 5.53125 -1.453125 5.53125 -1.921875 C 5.53125 -2.085938 5.503906 -2.234375 5.453125 -2.359375 C 5.398438 -2.484375 5.300781 -2.609375 5.15625 -2.734375 C 5.007812 -2.867188 4.804688 -3.023438 4.546875 -3.203125 C 4.285156 -3.378906 3.941406 -3.597656 3.515625 -3.859375 C 3.117188 -4.109375 2.773438 -4.335938 2.484375 -4.546875 C 2.191406 -4.753906 1.945312 -4.960938 1.75 -5.171875 C 1.5625 -5.390625 1.414062 -5.617188 1.3125 -5.859375 C 1.21875 -6.109375 1.171875 -6.394531 1.171875 -6.71875 C 1.171875 -7.113281 1.234375 -7.472656 1.359375 -7.796875 C 1.492188 -8.128906 1.675781 -8.410156 1.90625 -8.640625 C 2.144531 -8.878906 2.421875 -9.066406 2.734375 -9.203125 C 3.046875 -9.335938 3.390625 -9.40625 3.765625 -9.40625 C 4.078125 -9.40625 4.398438 -9.351562 4.734375 -9.25 C 5.066406 -9.15625 5.363281 -9.023438 5.625 -8.859375 L 5.96875 -9.21875 L 6.296875 -9.21875 L 6.296875 -6.71875 L 5.84375 -6.71875 C 5.59375 -7.425781 5.316406 -7.929688 5.015625 -8.234375 C 4.710938 -8.535156 4.34375 -8.6875 3.90625 -8.6875 C 3.507812 -8.6875 3.191406 -8.582031 2.953125 -8.375 C 2.710938 -8.164062 2.59375 -7.875 2.59375 -7.5 C 2.59375 -7.300781 2.625 -7.128906 2.6875 -6.984375 C 2.75 -6.835938 2.847656 -6.695312 2.984375 -6.5625 C 3.128906 -6.425781 3.304688 -6.285156 3.515625 -6.140625 C 3.734375 -5.992188 3.992188 -5.828125 4.296875 -5.640625 C 4.796875 -5.328125 5.222656 -5.046875 5.578125 -4.796875 C 5.929688 -4.554688 6.21875 -4.316406 6.4375 -4.078125 C 6.65625 -3.835938 6.816406 -3.585938 6.921875 -3.328125 C 7.023438 -3.078125 7.078125 -2.789062 7.078125 -2.46875 C 7.078125 -1.644531 6.8125 -1 6.28125 -0.53125 C 5.75 -0.0625 5.046875 0.171875 4.171875 0.171875 C 3.265625 0.171875 2.488281 -0.0859375 1.84375 -0.609375 Z M 1.5 0 "/></g></g></g><g fill="#ffffff" fill-opacity="1"><g transform="translate(175.180173, 309.353498)"><g/></g></g><g fill="#ffffff" fill-opacity="1"><g transform="translate(182.889847, 309.353498)"><g><path d="M 12 -13.40625 L 12.484375 -13.40625 L 12.640625 -9.40625 L 12 -9.40625 C 11.738281 -10.425781 11.242188 -11.222656 10.515625 -11.796875 C 9.785156 -12.378906 8.90625 -12.671875 7.875 -12.671875 C 7.164062 -12.671875 6.53125 -12.53125 5.96875 -12.25 C 5.414062 -11.976562 4.945312 -11.578125 4.5625 -11.046875 C 4.175781 -10.523438 3.878906 -9.882812 3.671875 -9.125 C 3.472656 -8.375 3.375 -7.523438 3.375 -6.578125 C 3.375 -4.710938 3.757812 -3.273438 4.53125 -2.265625 C 5.3125 -1.265625 6.441406 -0.765625 7.921875 -0.765625 C 10.160156 -0.765625 11.597656 -1.953125 12.234375 -4.328125 L 12.953125 -4.328125 L 12.953125 0 L 12.34375 0 L 11.9375 -1.375 C 10.71875 -0.34375 9.242188 0.171875 7.515625 0.171875 C 6.535156 0.171875 5.644531 0.015625 4.84375 -0.296875 C 4.050781 -0.609375 3.375 -1.050781 2.8125 -1.625 C 2.25 -2.195312 1.8125 -2.894531 1.5 -3.71875 C 1.195312 -4.539062 1.046875 -5.457031 1.046875 -6.46875 C 1.046875 -7.53125 1.207031 -8.492188 1.53125 -9.359375 C 1.851562 -10.234375 2.304688 -10.984375 2.890625 -11.609375 C 3.484375 -12.234375 4.1875 -12.71875 5 -13.0625 C 5.820312 -13.40625 6.726562 -13.578125 7.71875 -13.578125 C 8.40625 -13.578125 9.054688 -13.476562 9.671875 -13.28125 C 10.285156 -13.082031 10.953125 -12.765625 11.671875 -12.328125 Z M 12 -13.40625 "/></g></g></g><g fill="#ffffff" fill-opacity="1"><g transform="translate(199.558376, 309.353498)"><g><path d="M 3.640625 -2.71875 C 3.640625 -2.269531 3.65625 -1.910156 3.6875 -1.640625 C 3.726562 -1.378906 3.800781 -1.171875 3.90625 -1.015625 C 4.019531 -0.867188 4.175781 -0.765625 4.375 -0.703125 C 4.582031 -0.648438 4.851562 -0.617188 5.1875 -0.609375 L 5.1875 0 L 0.390625 0 L 0.390625 -0.609375 C 0.734375 -0.617188 1.007812 -0.65625 1.21875 -0.71875 C 1.425781 -0.78125 1.585938 -0.878906 1.703125 -1.015625 C 1.828125 -1.160156 1.910156 -1.359375 1.953125 -1.609375 C 1.992188 -1.859375 2.015625 -2.1875 2.015625 -2.59375 L 2.015625 -10.09375 C 2.015625 -10.71875 2.003906 -11.242188 1.984375 -11.671875 C 1.972656 -12.097656 1.953125 -12.382812 1.921875 -12.53125 C 1.859375 -12.800781 1.71875 -12.984375 1.5 -13.078125 C 1.289062 -13.171875 0.90625 -13.21875 0.34375 -13.21875 L 0.34375 -13.796875 L 3.640625 -14.453125 Z M 3.640625 -2.71875 "/></g></g></g><g fill="#ffffff" fill-opacity="1"><g transform="translate(207.929089, 309.353498)"><g><path d="M 8.0625 -6.4375 C 8.0625 -6.914062 8.046875 -7.289062 8.015625 -7.5625 C 7.992188 -7.832031 7.929688 -8.039062 7.828125 -8.1875 C 7.734375 -8.332031 7.59375 -8.429688 7.40625 -8.484375 C 7.21875 -8.535156 6.953125 -8.578125 6.609375 -8.609375 L 6.609375 -9.21875 L 9.765625 -9.21875 L 9.765625 -3.875 C 9.765625 -3.21875 9.769531 -2.679688 9.78125 -2.265625 C 9.800781 -1.847656 9.832031 -1.535156 9.875 -1.328125 C 9.894531 -1.171875 9.929688 -1.046875 9.984375 -0.953125 C 10.035156 -0.867188 10.113281 -0.800781 10.21875 -0.75 C 10.320312 -0.695312 10.457031 -0.660156 10.625 -0.640625 C 10.789062 -0.628906 11.007812 -0.625 11.28125 -0.625 L 11.28125 -0.015625 L 8.40625 0.1875 L 8.21875 -1.890625 L 8.140625 -1.890625 C 7.703125 -1.171875 7.195312 -0.644531 6.625 -0.3125 C 6.050781 0.0078125 5.453125 0.171875 4.828125 0.171875 C 4.335938 0.171875 3.863281 0.078125 3.40625 -0.109375 C 2.945312 -0.296875 2.601562 -0.546875 2.375 -0.859375 C 2.175781 -1.109375 2.03125 -1.457031 1.9375 -1.90625 C 1.851562 -2.363281 1.8125 -2.953125 1.8125 -3.671875 L 1.8125 -6.4375 C 1.8125 -6.914062 1.796875 -7.289062 1.765625 -7.5625 C 1.742188 -7.832031 1.679688 -8.039062 1.578125 -8.1875 C 1.484375 -8.332031 1.34375 -8.429688 1.15625 -8.484375 C 0.96875 -8.535156 0.703125 -8.578125 0.359375 -8.609375 L 0.359375 -9.21875 L 3.515625 -9.21875 L 3.515625 -4.46875 C 3.515625 -3.207031 3.660156 -2.289062 3.953125 -1.71875 C 4.253906 -1.15625 4.726562 -0.875 5.375 -0.875 C 6.394531 -0.875 7.191406 -1.539062 7.765625 -2.875 C 7.816406 -3.007812 7.859375 -3.132812 7.890625 -3.25 C 7.929688 -3.363281 7.960938 -3.488281 7.984375 -3.625 C 8.015625 -3.769531 8.035156 -3.929688 8.046875 -4.109375 C 8.054688 -4.285156 8.0625 -4.492188 8.0625 -4.734375 Z M 8.0625 -6.4375 "/></g></g></g><g fill="#ffffff" fill-opacity="1"><g transform="translate(222.301369, 309.353498)"><g><path d="M 3.296875 -3.640625 C 3.296875 -3.191406 3.359375 -2.785156 3.484375 -2.421875 C 3.609375 -2.054688 3.78125 -1.742188 4 -1.484375 C 4.226562 -1.222656 4.503906 -1.015625 4.828125 -0.859375 C 5.148438 -0.710938 5.492188 -0.640625 5.859375 -0.640625 C 6.265625 -0.640625 6.632812 -0.734375 6.96875 -0.921875 C 7.300781 -1.109375 7.585938 -1.375 7.828125 -1.71875 C 8.066406 -2.0625 8.25 -2.472656 8.375 -2.953125 C 8.507812 -3.429688 8.578125 -3.96875 8.578125 -4.5625 C 8.578125 -5.15625 8.503906 -5.695312 8.359375 -6.1875 C 8.222656 -6.675781 8.035156 -7.097656 7.796875 -7.453125 C 7.554688 -7.804688 7.265625 -8.082031 6.921875 -8.28125 C 6.578125 -8.476562 6.203125 -8.578125 5.796875 -8.578125 C 5.316406 -8.578125 4.890625 -8.460938 4.515625 -8.234375 C 4.148438 -8.015625 3.867188 -7.703125 3.671875 -7.296875 C 3.421875 -6.785156 3.296875 -6.082031 3.296875 -5.1875 Z M 3.25 -7.984375 L 3.328125 -7.984375 C 3.691406 -8.472656 4.097656 -8.832031 4.546875 -9.0625 C 4.992188 -9.289062 5.515625 -9.40625 6.109375 -9.40625 C 6.734375 -9.40625 7.316406 -9.28125 7.859375 -9.03125 C 8.398438 -8.789062 8.867188 -8.453125 9.265625 -8.015625 C 9.671875 -7.585938 9.984375 -7.082031 10.203125 -6.5 C 10.429688 -5.914062 10.546875 -5.285156 10.546875 -4.609375 C 10.546875 -3.921875 10.429688 -3.285156 10.203125 -2.703125 C 9.972656 -2.117188 9.65625 -1.613281 9.25 -1.1875 C 8.851562 -0.757812 8.378906 -0.421875 7.828125 -0.171875 C 7.285156 0.0664062 6.695312 0.1875 6.0625 0.1875 C 5.394531 0.1875 4.773438 0.0664062 4.203125 -0.171875 C 3.628906 -0.421875 3.15625 -0.753906 2.78125 -1.171875 L 1.96875 0 L 1.578125 0 L 1.578125 -10.515625 C 1.578125 -11.679688 1.503906 -12.429688 1.359375 -12.765625 C 1.328125 -12.835938 1.285156 -12.898438 1.234375 -12.953125 C 1.191406 -13.003906 1.125 -13.050781 1.03125 -13.09375 C 0.9375 -13.132812 0.804688 -13.171875 0.640625 -13.203125 C 0.484375 -13.242188 0.265625 -13.28125 -0.015625 -13.3125 L -0.015625 -13.75 L 3.25 -14.453125 Z M 3.25 -7.984375 "/></g></g></g><g fill="#ffffff" fill-opacity="1"><g transform="translate(143.002257, 332.837063)"><g><path d="M 13.40625 -2.765625 C 13.40625 -2.328125 13.425781 -1.96875 13.46875 -1.6875 C 13.519531 -1.414062 13.609375 -1.207031 13.734375 -1.0625 C 13.867188 -0.925781 14.0625 -0.828125 14.3125 -0.765625 C 14.5625 -0.703125 14.890625 -0.664062 15.296875 -0.65625 L 15.296875 0 L 9.65625 0 L 9.65625 -0.65625 C 10.0625 -0.664062 10.390625 -0.703125 10.640625 -0.765625 C 10.890625 -0.828125 11.082031 -0.925781 11.21875 -1.0625 C 11.363281 -1.195312 11.457031 -1.390625 11.5 -1.640625 C 11.550781 -1.898438 11.578125 -2.234375 11.578125 -2.640625 L 11.578125 -6.421875 L 4.53125 -6.421875 L 4.53125 -2.765625 C 4.53125 -2.328125 4.550781 -1.96875 4.59375 -1.6875 C 4.644531 -1.414062 4.734375 -1.207031 4.859375 -1.0625 C 4.992188 -0.925781 5.1875 -0.828125 5.4375 -0.765625 C 5.6875 -0.703125 6.015625 -0.664062 6.421875 -0.65625 L 6.421875 0 L 0.78125 0 L 0.78125 -0.65625 C 1.1875 -0.664062 1.515625 -0.703125 1.765625 -0.765625 C 2.015625 -0.828125 2.207031 -0.925781 2.34375 -1.0625 C 2.488281 -1.195312 2.582031 -1.390625 2.625 -1.640625 C 2.675781 -1.898438 2.703125 -2.234375 2.703125 -2.640625 L 2.703125 -10.75 C 2.703125 -11.15625 2.679688 -11.484375 2.640625 -11.734375 C 2.597656 -11.984375 2.515625 -12.179688 2.390625 -12.328125 C 2.265625 -12.472656 2.085938 -12.570312 1.859375 -12.625 C 1.628906 -12.675781 1.328125 -12.710938 0.953125 -12.734375 L 0.953125 -13.40625 L 6.25 -13.40625 L 6.25 -12.734375 C 5.875 -12.722656 5.570312 -12.6875 5.34375 -12.625 C 5.125 -12.570312 4.953125 -12.46875 4.828125 -12.3125 C 4.703125 -12.164062 4.617188 -11.957031 4.578125 -11.6875 C 4.546875 -11.425781 4.53125 -11.078125 4.53125 -10.640625 L 4.53125 -7.296875 L 11.578125 -7.296875 L 11.578125 -10.75 C 11.578125 -11.15625 11.554688 -11.484375 11.515625 -11.734375 C 11.472656 -11.984375 11.390625 -12.179688 11.265625 -12.328125 C 11.148438 -12.472656 10.972656 -12.570312 10.734375 -12.625 C 10.503906 -12.675781 10.203125 -12.710938 9.828125 -12.734375 L 9.828125 -13.40625 L 15.125 -13.40625 L 15.125 -12.734375 C 14.75 -12.722656 14.445312 -12.6875 14.21875 -12.625 C 14 -12.570312 13.828125 -12.46875 13.703125 -12.3125 C 13.585938 -12.164062 13.507812 -11.957031 13.46875 -11.6875 C 13.425781 -11.425781 13.40625 -11.078125 13.40625 -10.640625 Z M 13.40625 -2.765625 "/></g></g></g><g fill="#ffffff" fill-opacity="1"><g transform="translate(161.810482, 332.837063)"><g><path d="M 5.65625 -9.40625 C 6.320312 -9.40625 6.945312 -9.285156 7.53125 -9.046875 C 8.125 -8.804688 8.644531 -8.476562 9.09375 -8.0625 C 9.539062 -7.644531 9.894531 -7.144531 10.15625 -6.5625 C 10.414062 -5.988281 10.546875 -5.363281 10.546875 -4.6875 C 10.546875 -3.976562 10.414062 -3.328125 10.15625 -2.734375 C 9.894531 -2.140625 9.539062 -1.628906 9.09375 -1.203125 C 8.644531 -0.773438 8.125 -0.4375 7.53125 -0.1875 C 6.945312 0.0507812 6.320312 0.171875 5.65625 0.171875 C 5.007812 0.171875 4.390625 0.0507812 3.796875 -0.1875 C 3.210938 -0.425781 2.695312 -0.757812 2.25 -1.1875 C 1.8125 -1.613281 1.460938 -2.125 1.203125 -2.71875 C 0.953125 -3.320312 0.828125 -3.976562 0.828125 -4.6875 C 0.828125 -5.363281 0.953125 -5.992188 1.203125 -6.578125 C 1.460938 -7.160156 1.8125 -7.660156 2.25 -8.078125 C 2.695312 -8.492188 3.210938 -8.816406 3.796875 -9.046875 C 4.390625 -9.285156 5.007812 -9.40625 5.65625 -9.40625 Z M 5.65625 -8.5625 C 5.226562 -8.5625 4.835938 -8.46875 4.484375 -8.28125 C 4.128906 -8.09375 3.828125 -7.828125 3.578125 -7.484375 C 3.328125 -7.148438 3.132812 -6.738281 3 -6.25 C 2.863281 -5.769531 2.796875 -5.242188 2.796875 -4.671875 C 2.796875 -4.066406 2.863281 -3.519531 3 -3.03125 C 3.132812 -2.539062 3.328125 -2.125 3.578125 -1.78125 C 3.828125 -1.4375 4.125 -1.171875 4.46875 -0.984375 C 4.820312 -0.804688 5.21875 -0.71875 5.65625 -0.71875 C 6.09375 -0.71875 6.488281 -0.804688 6.84375 -0.984375 C 7.207031 -1.171875 7.515625 -1.4375 7.765625 -1.78125 C 8.023438 -2.132812 8.222656 -2.554688 8.359375 -3.046875 C 8.503906 -3.535156 8.578125 -4.078125 8.578125 -4.671875 C 8.578125 -5.242188 8.503906 -5.769531 8.359375 -6.25 C 8.222656 -6.726562 8.023438 -7.132812 7.765625 -7.46875 C 7.515625 -7.8125 7.207031 -8.078125 6.84375 -8.265625 C 6.488281 -8.460938 6.09375 -8.5625 5.65625 -8.5625 Z M 5.65625 -8.5625 "/></g></g></g><g fill="#ffffff" fill-opacity="1"><g transform="translate(175.904425, 332.837063)"><g><path d="M 3.765625 -2.734375 C 3.765625 -2.253906 3.773438 -1.878906 3.796875 -1.609375 C 3.816406 -1.335938 3.875 -1.128906 3.96875 -0.984375 C 4.070312 -0.835938 4.21875 -0.738281 4.40625 -0.6875 C 4.601562 -0.644531 4.867188 -0.613281 5.203125 -0.59375 L 5.203125 0 L 0.640625 0 L 0.640625 -0.59375 C 0.960938 -0.613281 1.21875 -0.644531 1.40625 -0.6875 C 1.601562 -0.738281 1.753906 -0.832031 1.859375 -0.96875 C 1.960938 -1.113281 2.03125 -1.3125 2.0625 -1.5625 C 2.09375 -1.820312 2.109375 -2.171875 2.109375 -2.609375 L 2.109375 -4.921875 C 2.109375 -6.304688 2.070312 -7.148438 2 -7.453125 C 1.96875 -7.597656 1.925781 -7.71875 1.875 -7.8125 C 1.820312 -7.914062 1.742188 -7.992188 1.640625 -8.046875 C 1.535156 -8.097656 1.398438 -8.132812 1.234375 -8.15625 C 1.066406 -8.175781 0.859375 -8.1875 0.609375 -8.1875 L 0.609375 -8.734375 L 3.390625 -9.40625 L 3.609375 -7.671875 L 3.671875 -7.671875 C 4.109375 -8.222656 4.625 -8.648438 5.21875 -8.953125 C 5.8125 -9.253906 6.457031 -9.40625 7.15625 -9.40625 C 7.6875 -9.40625 8.171875 -9.316406 8.609375 -9.140625 C 9.054688 -8.960938 9.394531 -8.722656 9.625 -8.421875 C 9.820312 -8.160156 9.960938 -7.816406 10.046875 -7.390625 C 10.128906 -6.960938 10.171875 -6.378906 10.171875 -5.640625 L 10.171875 -2.734375 C 10.171875 -2.253906 10.179688 -1.878906 10.203125 -1.609375 C 10.234375 -1.335938 10.296875 -1.128906 10.390625 -0.984375 C 10.484375 -0.835938 10.625 -0.738281 10.8125 -0.6875 C 11.007812 -0.644531 11.265625 -0.613281 11.578125 -0.59375 L 11.578125 0 L 7.0625 0 L 7.0625 -0.59375 C 7.382812 -0.601562 7.640625 -0.632812 7.828125 -0.6875 C 8.023438 -0.738281 8.171875 -0.832031 8.265625 -0.96875 C 8.367188 -1.113281 8.4375 -1.316406 8.46875 -1.578125 C 8.5 -1.835938 8.515625 -2.179688 8.515625 -2.609375 L 8.515625 -4.90625 C 8.515625 -5.570312 8.476562 -6.128906 8.40625 -6.578125 C 8.332031 -7.035156 8.21875 -7.398438 8.0625 -7.671875 C 7.90625 -7.953125 7.695312 -8.148438 7.4375 -8.265625 C 7.1875 -8.390625 6.882812 -8.453125 6.53125 -8.453125 C 6.007812 -8.453125 5.53125 -8.316406 5.09375 -8.046875 C 4.65625 -7.773438 4.316406 -7.398438 4.078125 -6.921875 C 4.015625 -6.804688 3.960938 -6.695312 3.921875 -6.59375 C 3.878906 -6.488281 3.847656 -6.363281 3.828125 -6.21875 C 3.804688 -6.082031 3.789062 -5.925781 3.78125 -5.75 C 3.769531 -5.570312 3.765625 -5.34375 3.765625 -5.0625 Z M 3.765625 -2.734375 "/></g></g></g><g fill="#ffffff" fill-opacity="1"><g transform="translate(190.607237, 332.837063)"><g><path d="M 9.09375 -1.625 C 8.101562 -0.425781 6.875 0.171875 5.40625 0.171875 C 4.726562 0.171875 4.109375 0.0625 3.546875 -0.15625 C 2.992188 -0.382812 2.515625 -0.703125 2.109375 -1.109375 C 1.710938 -1.523438 1.40625 -2.019531 1.1875 -2.59375 C 0.96875 -3.175781 0.859375 -3.816406 0.859375 -4.515625 C 0.859375 -5.210938 0.972656 -5.863281 1.203125 -6.46875 C 1.429688 -7.070312 1.753906 -7.585938 2.171875 -8.015625 C 2.597656 -8.453125 3.101562 -8.789062 3.6875 -9.03125 C 4.28125 -9.28125 4.925781 -9.40625 5.625 -9.40625 C 6.75 -9.40625 7.617188 -9.097656 8.234375 -8.484375 C 8.847656 -7.878906 9.15625 -7.003906 9.15625 -5.859375 C 9.15625 -5.703125 9.125 -5.601562 9.0625 -5.5625 C 9 -5.53125 8.847656 -5.515625 8.609375 -5.515625 L 2.890625 -5.515625 C 2.867188 -5.421875 2.847656 -5.304688 2.828125 -5.171875 C 2.816406 -5.046875 2.8125 -4.898438 2.8125 -4.734375 C 2.8125 -4.128906 2.882812 -3.578125 3.03125 -3.078125 C 3.175781 -2.585938 3.382812 -2.171875 3.65625 -1.828125 C 3.9375 -1.484375 4.265625 -1.210938 4.640625 -1.015625 C 5.015625 -0.828125 5.4375 -0.734375 5.90625 -0.734375 C 6.382812 -0.734375 6.832031 -0.835938 7.25 -1.046875 C 7.675781 -1.265625 8.109375 -1.617188 8.546875 -2.109375 Z M 6.21875 -6.3125 C 6.445312 -6.3125 6.628906 -6.316406 6.765625 -6.328125 C 6.910156 -6.347656 7.015625 -6.375 7.078125 -6.40625 C 7.148438 -6.4375 7.195312 -6.484375 7.21875 -6.546875 C 7.25 -6.617188 7.265625 -6.707031 7.265625 -6.8125 C 7.265625 -7.34375 7.09375 -7.765625 6.75 -8.078125 C 6.40625 -8.398438 5.9375 -8.5625 5.34375 -8.5625 C 4.09375 -8.5625 3.316406 -7.8125 3.015625 -6.3125 Z M 6.21875 -6.3125 "/></g></g></g><g fill="#ffffff" fill-opacity="1"><g transform="translate(45.334182, 285.266329)"><g><path d="M 19.46875 -9.0625 L 8.46875 -9.0625 C 7.25 -6.3125 6.640625 -4.40625 6.640625 -3.34375 C 6.640625 -2.5625 6.929688 -2.066406 7.515625 -1.859375 C 8.097656 -1.660156 8.972656 -1.5625 10.140625 -1.5625 L 10.140625 0 L -0.5 0 L -0.5 -1.5625 C 0.113281 -1.632812 0.644531 -1.734375 1.09375 -1.859375 C 1.550781 -1.992188 1.957031 -2.175781 2.3125 -2.40625 C 2.664062 -2.644531 2.96875 -2.953125 3.21875 -3.328125 C 3.476562 -3.703125 3.726562 -4.160156 3.96875 -4.703125 L 14.1875 -30.328125 L 17.0625 -30.328125 L 26.359375 -7.625 C 26.898438 -6.300781 27.359375 -5.257812 27.734375 -4.5 C 28.109375 -3.75 28.507812 -3.171875 28.9375 -2.765625 C 29.363281 -2.367188 29.851562 -2.09375 30.40625 -1.9375 C 30.96875 -1.78125 31.691406 -1.664062 32.578125 -1.59375 L 32.578125 0 L 17.875 0 L 17.875 -1.59375 C 19.125 -1.644531 20.019531 -1.773438 20.5625 -1.984375 C 21.101562 -2.191406 21.375 -2.609375 21.375 -3.234375 C 21.375 -3.585938 21.285156 -4.050781 21.109375 -4.625 C 20.929688 -5.195312 20.6875 -5.894531 20.375 -6.71875 Z M 9.375 -11.390625 L 18.625 -11.390625 L 14.15625 -23.171875 L 14 -23.171875 Z M 9.375 -11.390625 "/></g></g></g><g fill="#ffffff" fill-opacity="1"><g transform="translate(76.779316, 285.266329)"><g><path d="M 27.484375 -29.9375 L 29.390625 -29.9375 L 28.609375 -20.09375 L 27.0625 -20.09375 C 26.507812 -22.476562 25.445312 -24.359375 23.875 -25.734375 C 22.3125 -27.109375 20.414062 -27.796875 18.1875 -27.796875 C 16.664062 -27.796875 15.304688 -27.488281 14.109375 -26.875 C 12.921875 -26.269531 11.914062 -25.40625 11.09375 -24.28125 C 10.28125 -23.15625 9.660156 -21.78125 9.234375 -20.15625 C 8.804688 -18.539062 8.59375 -16.71875 8.59375 -14.6875 C 8.59375 -10.675781 9.414062 -7.585938 11.0625 -5.421875 C 12.707031 -3.253906 15.132812 -2.171875 18.34375 -2.171875 C 20.9375 -2.171875 23.082031 -2.867188 24.78125 -4.265625 C 26.476562 -5.671875 27.691406 -7.757812 28.421875 -10.53125 L 30.125 -10.53125 L 30.125 0 L 28.296875 0 L 27.75 -3.078125 C 24.90625 -0.765625 21.445312 0.390625 17.375 0.390625 C 15.019531 0.390625 12.882812 0.0390625 10.96875 -0.65625 C 9.050781 -1.351562 7.414062 -2.34375 6.0625 -3.625 C 4.71875 -4.914062 3.675781 -6.476562 2.9375 -8.3125 C 2.195312 -10.15625 1.828125 -12.207031 1.828125 -14.46875 C 1.828125 -16.820312 2.210938 -18.96875 2.984375 -20.90625 C 3.765625 -22.851562 4.859375 -24.523438 6.265625 -25.921875 C 7.679688 -27.328125 9.367188 -28.410156 11.328125 -29.171875 C 13.285156 -29.941406 15.457031 -30.328125 17.84375 -30.328125 C 19.425781 -30.328125 20.898438 -30.101562 22.265625 -29.65625 C 23.640625 -29.21875 25.132812 -28.507812 26.75 -27.53125 Z M 27.484375 -29.9375 "/></g></g></g><g fill="#ffffff" fill-opacity="1"><g transform="translate(108.768608, 285.266329)"><g><path d="M 19.46875 -9.0625 L 8.46875 -9.0625 C 7.25 -6.3125 6.640625 -4.40625 6.640625 -3.34375 C 6.640625 -2.5625 6.929688 -2.066406 7.515625 -1.859375 C 8.097656 -1.660156 8.972656 -1.5625 10.140625 -1.5625 L 10.140625 0 L -0.5 0 L -0.5 -1.5625 C 0.113281 -1.632812 0.644531 -1.734375 1.09375 -1.859375 C 1.550781 -1.992188 1.957031 -2.175781 2.3125 -2.40625 C 2.664062 -2.644531 2.96875 -2.953125 3.21875 -3.328125 C 3.476562 -3.703125 3.726562 -4.160156 3.96875 -4.703125 L 14.1875 -30.328125 L 17.0625 -30.328125 L 26.359375 -7.625 C 26.898438 -6.300781 27.359375 -5.257812 27.734375 -4.5 C 28.109375 -3.75 28.507812 -3.171875 28.9375 -2.765625 C 29.363281 -2.367188 29.851562 -2.09375 30.40625 -1.9375 C 30.96875 -1.78125 31.691406 -1.664062 32.578125 -1.59375 L 32.578125 0 L 17.875 0 L 17.875 -1.59375 C 19.125 -1.644531 20.019531 -1.773438 20.5625 -1.984375 C 21.101562 -2.191406 21.375 -2.609375 21.375 -3.234375 C 21.375 -3.585938 21.285156 -4.050781 21.109375 -4.625 C 20.929688 -5.195312 20.6875 -5.894531 20.375 -6.71875 Z M 9.375 -11.390625 L 18.625 -11.390625 L 14.15625 -23.171875 L 14 -23.171875 Z M 9.375 -11.390625 "/></g></g></g><g fill="#ffffff" fill-opacity="1"><g transform="translate(140.213742, 285.266329)"><g><path d="M 1.359375 0 L 1.359375 -1.5625 C 2.210938 -1.582031 2.90625 -1.648438 3.4375 -1.765625 C 3.96875 -1.878906 4.378906 -2.097656 4.671875 -2.421875 C 4.972656 -2.753906 5.175781 -3.195312 5.28125 -3.75 C 5.382812 -4.3125 5.4375 -5.054688 5.4375 -5.984375 L 5.4375 -23.953125 C 5.4375 -24.859375 5.394531 -25.585938 5.3125 -26.140625 C 5.238281 -26.703125 5.070312 -27.144531 4.8125 -27.46875 C 4.5625 -27.789062 4.207031 -28.007812 3.75 -28.125 C 3.300781 -28.238281 2.710938 -28.320312 1.984375 -28.375 L 1.984375 -29.9375 L 16.75 -29.9375 C 19.238281 -29.9375 21.53125 -29.546875 23.625 -28.765625 C 25.726562 -27.984375 27.546875 -26.90625 29.078125 -25.53125 C 30.609375 -24.164062 31.800781 -22.535156 32.65625 -20.640625 C 33.507812 -18.753906 33.9375 -16.695312 33.9375 -14.46875 C 33.9375 -12.34375 33.535156 -10.390625 32.734375 -8.609375 C 31.929688 -6.835938 30.8125 -5.316406 29.375 -4.046875 C 27.9375 -2.773438 26.210938 -1.78125 24.203125 -1.0625 C 22.191406 -0.351562 19.984375 0 17.578125 0 Z M 11.8125 -27.5625 C 11.375 -27.5625 11.15625 -27.34375 11.15625 -26.90625 L 11.15625 -6.796875 C 11.15625 -5.296875 11.617188 -4.179688 12.546875 -3.453125 C 13.484375 -2.734375 14.925781 -2.375 16.875 -2.375 C 20.269531 -2.375 22.878906 -3.394531 24.703125 -5.4375 C 26.535156 -7.488281 27.453125 -10.472656 27.453125 -14.390625 C 27.453125 -16.460938 27.203125 -18.3125 26.703125 -19.9375 C 26.210938 -21.570312 25.5 -22.953125 24.5625 -24.078125 C 23.632812 -25.210938 22.503906 -26.078125 21.171875 -26.671875 C 19.835938 -27.265625 18.335938 -27.5625 16.671875 -27.5625 Z M 11.8125 -27.5625 "/></g></g></g><g fill="#ffffff" fill-opacity="1"><g transform="translate(175.934471, 285.266329)"><g><path d="M 11.15625 -16.5625 C 12.8125 -16.5625 14.144531 -16.613281 15.15625 -16.71875 C 16.164062 -16.820312 16.945312 -17.035156 17.5 -17.359375 C 18.0625 -17.679688 18.457031 -18.148438 18.6875 -18.765625 C 18.925781 -19.390625 19.113281 -20.234375 19.25 -21.296875 L 20.6875 -21.296875 L 20.6875 -9.90625 L 19.25 -9.90625 C 19.09375 -10.945312 18.882812 -11.773438 18.625 -12.390625 C 18.363281 -13.015625 17.945312 -13.488281 17.375 -13.8125 C 16.800781 -14.144531 16.03125 -14.351562 15.0625 -14.4375 C 14.09375 -14.53125 12.789062 -14.578125 11.15625 -14.578125 L 11.15625 -6.5625 C 11.15625 -5.738281 11.265625 -5.039062 11.484375 -4.46875 C 11.703125 -3.894531 12.070312 -3.429688 12.59375 -3.078125 C 13.113281 -2.734375 13.800781 -2.488281 14.65625 -2.34375 C 15.507812 -2.207031 16.5625 -2.140625 17.8125 -2.140625 C 19.28125 -2.140625 20.523438 -2.242188 21.546875 -2.453125 C 22.578125 -2.660156 23.425781 -3.019531 24.09375 -3.53125 C 24.769531 -4.050781 25.316406 -4.742188 25.734375 -5.609375 C 26.148438 -6.484375 26.5 -7.582031 26.78125 -8.90625 L 28.34375 -8.90625 L 27.71875 0 L 1.359375 0 L 1.359375 -1.5625 C 2.210938 -1.582031 2.910156 -1.65625 3.453125 -1.78125 C 4.003906 -1.914062 4.421875 -2.140625 4.703125 -2.453125 C 4.984375 -2.765625 5.175781 -3.203125 5.28125 -3.765625 C 5.382812 -4.335938 5.4375 -5.078125 5.4375 -5.984375 L 5.4375 -23.953125 C 5.4375 -24.859375 5.390625 -25.585938 5.296875 -26.140625 C 5.210938 -26.703125 5.039062 -27.144531 4.78125 -27.46875 C 4.519531 -27.789062 4.148438 -28.007812 3.671875 -28.125 C 3.191406 -28.238281 2.5625 -28.320312 1.78125 -28.375 L 1.78125 -29.9375 L 26.359375 -29.9375 L 26.625 -22.3125 L 24.953125 -22.3125 C 24.796875 -23.40625 24.550781 -24.304688 24.21875 -25.015625 C 23.882812 -25.722656 23.414062 -26.289062 22.8125 -26.71875 C 22.21875 -27.15625 21.445312 -27.457031 20.5 -27.625 C 19.5625 -27.789062 18.40625 -27.875 17.03125 -27.875 L 12.640625 -27.875 C 11.960938 -27.875 11.546875 -27.789062 11.390625 -27.625 C 11.234375 -27.457031 11.15625 -27.0625 11.15625 -26.4375 Z M 11.15625 -16.5625 "/></g></g></g><g fill="#ffffff" fill-opacity="1"><g transform="translate(205.630484, 285.266329)"><g><path d="M 22.59375 -7.265625 L 31.5625 -29.9375 L 42.921875 -29.9375 L 42.921875 -28.375 C 42.066406 -28.375 41.375 -28.289062 40.84375 -28.125 C 40.3125 -27.957031 39.898438 -27.648438 39.609375 -27.203125 C 39.328125 -26.765625 39.140625 -26.164062 39.046875 -25.40625 C 38.953125 -24.644531 38.90625 -23.679688 38.90625 -22.515625 L 38.90625 -7.421875 C 38.90625 -6.128906 38.957031 -5.109375 39.0625 -4.359375 C 39.164062 -3.609375 39.375 -3.023438 39.6875 -2.609375 C 40 -2.191406 40.445312 -1.914062 41.03125 -1.78125 C 41.613281 -1.65625 42.382812 -1.582031 43.34375 -1.5625 L 43.34375 0 L 28.734375 0 L 28.734375 -1.5625 C 29.691406 -1.582031 30.460938 -1.660156 31.046875 -1.796875 C 31.628906 -1.941406 32.082031 -2.207031 32.40625 -2.59375 C 32.726562 -2.988281 32.941406 -3.539062 33.046875 -4.25 C 33.148438 -4.96875 33.203125 -5.9375 33.203125 -7.15625 L 33.203125 -25.34375 L 33 -25.34375 L 22.546875 0.390625 L 19.671875 0.390625 L 8.859375 -25.34375 L 8.703125 -25.34375 L 8.703125 -7.421875 C 8.703125 -6.128906 8.753906 -5.109375 8.859375 -4.359375 C 8.960938 -3.609375 9.171875 -3.023438 9.484375 -2.609375 C 9.796875 -2.191406 10.242188 -1.914062 10.828125 -1.78125 C 11.410156 -1.65625 12.179688 -1.582031 13.140625 -1.5625 L 13.140625 0 L 1.171875 0 L 1.171875 -1.5625 C 2.128906 -1.582031 2.90625 -1.660156 3.5 -1.796875 C 4.09375 -1.941406 4.550781 -2.207031 4.875 -2.59375 C 5.195312 -2.988281 5.410156 -3.539062 5.515625 -4.25 C 5.617188 -4.96875 5.671875 -5.9375 5.671875 -7.15625 L 5.671875 -22.78125 C 5.671875 -23.863281 5.617188 -24.769531 5.515625 -25.5 C 5.410156 -26.226562 5.21875 -26.804688 4.9375 -27.234375 C 4.65625 -27.660156 4.25 -27.957031 3.71875 -28.125 C 3.1875 -28.289062 2.476562 -28.375 1.59375 -28.375 L 1.59375 -29.9375 L 13.375 -29.9375 L 22.4375 -7.265625 Z M 22.59375 -7.265625 "/></g></g></g><g fill="#ffffff" fill-opacity="1"><g transform="translate(250.13564, 285.266329)"><g><path d="M 15.28125 0 L 1.40625 0 L 1.40625 -1.5625 C 2.28125 -1.582031 2.984375 -1.660156 3.515625 -1.796875 C 4.046875 -1.941406 4.453125 -2.207031 4.734375 -2.59375 C 5.023438 -2.988281 5.222656 -3.539062 5.328125 -4.25 C 5.429688 -4.96875 5.484375 -5.9375 5.484375 -7.15625 L 5.484375 -22.78125 C 5.484375 -23.863281 5.4375 -24.757812 5.34375 -25.46875 C 5.25 -26.1875 5.070312 -26.753906 4.8125 -27.171875 C 4.5625 -27.585938 4.195312 -27.878906 3.71875 -28.046875 C 3.238281 -28.210938 2.59375 -28.320312 1.78125 -28.375 L 1.78125 -29.9375 L 14.890625 -29.9375 L 14.890625 -28.375 C 14.085938 -28.320312 13.445312 -28.210938 12.96875 -28.046875 C 12.488281 -27.878906 12.117188 -27.585938 11.859375 -27.171875 C 11.597656 -26.753906 11.421875 -26.1875 11.328125 -25.46875 C 11.242188 -24.757812 11.203125 -23.863281 11.203125 -22.78125 L 11.203125 -7.15625 C 11.203125 -5.9375 11.242188 -4.96875 11.328125 -4.25 C 11.421875 -3.539062 11.613281 -2.988281 11.90625 -2.59375 C 12.207031 -2.207031 12.625 -1.941406 13.15625 -1.796875 C 13.6875 -1.660156 14.394531 -1.582031 15.28125 -1.5625 Z M 15.28125 0 "/></g></g></g><g fill="#ffffff" fill-opacity="1"><g transform="translate(266.810494, 285.266329)"><g><path d="M 19.46875 -9.0625 L 8.46875 -9.0625 C 7.25 -6.3125 6.640625 -4.40625 6.640625 -3.34375 C 6.640625 -2.5625 6.929688 -2.066406 7.515625 -1.859375 C 8.097656 -1.660156 8.972656 -1.5625 10.140625 -1.5625 L 10.140625 0 L -0.5 0 L -0.5 -1.5625 C 0.113281 -1.632812 0.644531 -1.734375 1.09375 -1.859375 C 1.550781 -1.992188 1.957031 -2.175781 2.3125 -2.40625 C 2.664062 -2.644531 2.96875 -2.953125 3.21875 -3.328125 C 3.476562 -3.703125 3.726562 -4.160156 3.96875 -4.703125 L 14.1875 -30.328125 L 17.0625 -30.328125 L 26.359375 -7.625 C 26.898438 -6.300781 27.359375 -5.257812 27.734375 -4.5 C 28.109375 -3.75 28.507812 -3.171875 28.9375 -2.765625 C 29.363281 -2.367188 29.851562 -2.09375 30.40625 -1.9375 C 30.96875 -1.78125 31.691406 -1.664062 32.578125 -1.59375 L 32.578125 0 L 17.875 0 L 17.875 -1.59375 C 19.125 -1.644531 20.019531 -1.773438 20.5625 -1.984375 C 21.101562 -2.191406 21.375 -2.609375 21.375 -3.234375 C 21.375 -3.585938 21.285156 -4.050781 21.109375 -4.625 C 20.929688 -5.195312 20.6875 -5.894531 20.375 -6.71875 Z M 9.375 -11.390625 L 18.625 -11.390625 L 14.15625 -23.171875 L 14 -23.171875 Z M 9.375 -11.390625 "/></g></g></g><g fill="#ffffff" fill-opacity="1"><g transform="translate(61.840299, 168.868302)"><g><path d="M 8.921875 -1.59375 C 7.953125 -0.414062 6.75 0.171875 5.3125 0.171875 C 4.632812 0.171875 4.023438 0.0625 3.484375 -0.15625 C 2.941406 -0.382812 2.472656 -0.695312 2.078125 -1.09375 C 1.679688 -1.5 1.375 -1.984375 1.15625 -2.546875 C 0.945312 -3.117188 0.84375 -3.742188 0.84375 -4.421875 C 0.84375 -5.117188 0.953125 -5.757812 1.171875 -6.34375 C 1.398438 -6.9375 1.722656 -7.441406 2.140625 -7.859375 C 2.554688 -8.285156 3.050781 -8.617188 3.625 -8.859375 C 4.195312 -9.097656 4.828125 -9.21875 5.515625 -9.21875 C 6.617188 -9.21875 7.472656 -8.914062 8.078125 -8.3125 C 8.679688 -7.71875 8.984375 -6.863281 8.984375 -5.75 C 8.984375 -5.59375 8.953125 -5.492188 8.890625 -5.453125 C 8.828125 -5.421875 8.679688 -5.40625 8.453125 -5.40625 L 2.828125 -5.40625 C 2.804688 -5.320312 2.789062 -5.210938 2.78125 -5.078125 C 2.769531 -4.953125 2.765625 -4.804688 2.765625 -4.640625 C 2.765625 -4.046875 2.832031 -3.507812 2.96875 -3.03125 C 3.113281 -2.550781 3.320312 -2.140625 3.59375 -1.796875 C 3.863281 -1.453125 4.179688 -1.1875 4.546875 -1 C 4.921875 -0.8125 5.335938 -0.71875 5.796875 -0.71875 C 6.265625 -0.71875 6.703125 -0.820312 7.109375 -1.03125 C 7.523438 -1.238281 7.953125 -1.582031 8.390625 -2.0625 Z M 6.09375 -6.203125 C 6.320312 -6.203125 6.503906 -6.207031 6.640625 -6.21875 C 6.773438 -6.226562 6.875 -6.25 6.9375 -6.28125 C 7.007812 -6.320312 7.054688 -6.375 7.078125 -6.4375 C 7.109375 -6.5 7.125 -6.578125 7.125 -6.671875 C 7.125 -7.203125 6.953125 -7.625 6.609375 -7.9375 C 6.273438 -8.25 5.820312 -8.40625 5.25 -8.40625 C 4.019531 -8.40625 3.253906 -7.671875 2.953125 -6.203125 Z M 6.09375 -6.203125 "/></g></g></g><g fill="#ffffff" fill-opacity="1"><g transform="translate(71.621733, 168.868302)"><g><path d="M 1.46875 0 L 1.09375 0 L 1.09375 -2.9375 L 1.515625 -2.9375 C 1.960938 -1.332031 2.769531 -0.53125 3.9375 -0.53125 C 4.394531 -0.53125 4.757812 -0.640625 5.03125 -0.859375 C 5.300781 -1.085938 5.4375 -1.425781 5.4375 -1.875 C 5.4375 -2.050781 5.410156 -2.195312 5.359375 -2.3125 C 5.304688 -2.4375 5.207031 -2.5625 5.0625 -2.6875 C 4.914062 -2.820312 4.710938 -2.972656 4.453125 -3.140625 C 4.203125 -3.316406 3.867188 -3.535156 3.453125 -3.796875 C 3.066406 -4.035156 2.726562 -4.253906 2.4375 -4.453125 C 2.15625 -4.660156 1.914062 -4.867188 1.71875 -5.078125 C 1.53125 -5.285156 1.382812 -5.507812 1.28125 -5.75 C 1.1875 -5.988281 1.140625 -6.269531 1.140625 -6.59375 C 1.140625 -6.976562 1.203125 -7.332031 1.328125 -7.65625 C 1.460938 -7.976562 1.644531 -8.253906 1.875 -8.484375 C 2.101562 -8.710938 2.367188 -8.890625 2.671875 -9.015625 C 2.984375 -9.148438 3.320312 -9.21875 3.6875 -9.21875 C 4 -9.21875 4.316406 -9.171875 4.640625 -9.078125 C 4.972656 -8.984375 5.265625 -8.851562 5.515625 -8.6875 L 5.859375 -9.046875 L 6.1875 -9.046875 L 6.1875 -6.59375 L 5.734375 -6.59375 C 5.484375 -7.289062 5.207031 -7.785156 4.90625 -8.078125 C 4.613281 -8.367188 4.253906 -8.515625 3.828125 -8.515625 C 3.441406 -8.515625 3.128906 -8.410156 2.890625 -8.203125 C 2.660156 -8.003906 2.546875 -7.722656 2.546875 -7.359375 C 2.546875 -7.171875 2.578125 -7.003906 2.640625 -6.859375 C 2.703125 -6.710938 2.800781 -6.570312 2.9375 -6.4375 C 3.070312 -6.300781 3.242188 -6.160156 3.453125 -6.015625 C 3.671875 -5.878906 3.925781 -5.71875 4.21875 -5.53125 C 4.707031 -5.226562 5.125 -4.957031 5.46875 -4.71875 C 5.820312 -4.476562 6.101562 -4.238281 6.3125 -4 C 6.53125 -3.769531 6.691406 -3.53125 6.796875 -3.28125 C 6.898438 -3.03125 6.953125 -2.742188 6.953125 -2.421875 C 6.953125 -1.617188 6.6875 -0.984375 6.15625 -0.515625 C 5.632812 -0.0546875 4.945312 0.171875 4.09375 0.171875 C 3.207031 0.171875 2.445312 -0.0820312 1.8125 -0.59375 Z M 1.46875 0 "/></g></g></g><g fill="#ffffff" fill-opacity="1"><g transform="translate(79.371771, 168.868302)"><g><path d="M 0.6875 -7.96875 L 0.6875 -8.609375 C 1.289062 -8.960938 1.757812 -9.316406 2.09375 -9.671875 C 2.4375 -10.023438 2.703125 -10.445312 2.890625 -10.9375 L 3.375 -10.9375 L 3.375 -8.78125 L 5.671875 -8.78125 L 5.671875 -7.96875 L 3.375 -7.96875 L 3.375 -2.78125 C 3.375 -2.382812 3.394531 -2.046875 3.4375 -1.765625 C 3.476562 -1.492188 3.546875 -1.273438 3.640625 -1.109375 C 3.734375 -0.953125 3.851562 -0.835938 4 -0.765625 C 4.144531 -0.703125 4.332031 -0.671875 4.5625 -0.671875 C 4.84375 -0.671875 5.082031 -0.726562 5.28125 -0.84375 C 5.476562 -0.96875 5.675781 -1.171875 5.875 -1.453125 L 6.296875 -1.125 C 6.140625 -0.707031 5.863281 -0.382812 5.46875 -0.15625 C 5.082031 0.0625 4.597656 0.171875 4.015625 0.171875 C 3.265625 0.171875 2.691406 -0.00390625 2.296875 -0.359375 C 1.898438 -0.722656 1.703125 -1.238281 1.703125 -1.90625 L 1.703125 -7.96875 Z M 0.6875 -7.96875 "/></g></g></g><g fill="#ffffff" fill-opacity="1"><g transform="translate(85.824436, 168.868302)"><g><path d="M 1.140625 -0.9375 C 1.140625 -1.257812 1.25 -1.523438 1.46875 -1.734375 C 1.6875 -1.953125 1.945312 -2.0625 2.25 -2.0625 C 2.570312 -2.0625 2.835938 -1.953125 3.046875 -1.734375 C 3.265625 -1.523438 3.375 -1.257812 3.375 -0.9375 C 3.375 -0.632812 3.265625 -0.375 3.046875 -0.15625 C 2.835938 0.0625 2.570312 0.171875 2.25 0.171875 C 1.945312 0.171875 1.6875 0.0625 1.46875 -0.15625 C 1.25 -0.375 1.140625 -0.632812 1.140625 -0.9375 Z M 1.140625 -0.9375 "/></g></g></g><g fill="#ffffff" fill-opacity="1"><g transform="translate(246.76371, 168.868302)"><g><path d="M 4.71875 -2.765625 C 4.71875 -2.316406 4.734375 -1.957031 4.765625 -1.6875 C 4.804688 -1.425781 4.890625 -1.21875 5.015625 -1.0625 C 5.140625 -0.914062 5.316406 -0.8125 5.546875 -0.75 C 5.785156 -0.695312 6.097656 -0.664062 6.484375 -0.65625 L 6.484375 0 L 1.265625 0 L 1.265625 -0.65625 C 1.640625 -0.664062 1.941406 -0.703125 2.171875 -0.765625 C 2.410156 -0.828125 2.59375 -0.925781 2.71875 -1.0625 C 2.851562 -1.207031 2.941406 -1.40625 2.984375 -1.65625 C 3.023438 -1.914062 3.046875 -2.242188 3.046875 -2.640625 L 3.046875 -8.921875 C 3.046875 -9.578125 3.039062 -10.117188 3.03125 -10.546875 C 3.019531 -10.984375 3 -11.269531 2.96875 -11.40625 C 2.914062 -11.65625 2.742188 -11.804688 2.453125 -11.859375 C 2.171875 -11.921875 1.742188 -11.953125 1.171875 -11.953125 L 1.171875 -12.609375 C 1.734375 -12.628906 2.320312 -12.703125 2.9375 -12.828125 C 3.5625 -12.960938 4.15625 -13.128906 4.71875 -13.328125 Z M 4.71875 -2.765625 "/></g></g></g><g fill="#ffffff" fill-opacity="1"><g transform="translate(254.377172, 168.868302)"><g><path d="M 4.59375 -6.234375 C 3.945312 -5.867188 3.457031 -5.421875 3.125 -4.890625 C 2.789062 -4.359375 2.625 -3.769531 2.625 -3.125 C 2.625 -2.351562 2.851562 -1.738281 3.3125 -1.28125 C 3.78125 -0.832031 4.40625 -0.609375 5.1875 -0.609375 C 5.976562 -0.609375 6.601562 -0.828125 7.0625 -1.265625 C 7.519531 -1.710938 7.75 -2.3125 7.75 -3.0625 C 7.75 -3.3125 7.710938 -3.539062 7.640625 -3.75 C 7.566406 -3.96875 7.445312 -4.179688 7.28125 -4.390625 C 7.113281 -4.597656 6.894531 -4.800781 6.625 -5 C 6.351562 -5.207031 6.019531 -5.425781 5.625 -5.65625 Z M 6.578125 -7.390625 C 8.398438 -6.421875 9.3125 -5.164062 9.3125 -3.625 C 9.3125 -3.082031 9.203125 -2.582031 8.984375 -2.125 C 8.773438 -1.664062 8.484375 -1.265625 8.109375 -0.921875 C 7.734375 -0.578125 7.289062 -0.304688 6.78125 -0.109375 C 6.269531 0.078125 5.71875 0.171875 5.125 0.171875 C 4.539062 0.171875 4 0.0859375 3.5 -0.078125 C 3 -0.242188 2.5625 -0.472656 2.1875 -0.765625 C 1.820312 -1.054688 1.53125 -1.398438 1.3125 -1.796875 C 1.101562 -2.191406 1 -2.617188 1 -3.078125 C 1 -4.492188 1.957031 -5.664062 3.875 -6.59375 C 2.269531 -7.457031 1.46875 -8.5625 1.46875 -9.90625 C 1.46875 -10.375 1.5625 -10.816406 1.75 -11.234375 C 1.9375 -11.660156 2.207031 -12.035156 2.5625 -12.359375 C 3.257812 -13.003906 4.113281 -13.328125 5.125 -13.328125 C 6.007812 -13.328125 6.804688 -13.085938 7.515625 -12.609375 C 7.929688 -12.304688 8.25 -11.957031 8.46875 -11.5625 C 8.695312 -11.175781 8.8125 -10.753906 8.8125 -10.296875 C 8.8125 -9.710938 8.632812 -9.175781 8.28125 -8.6875 C 7.925781 -8.195312 7.359375 -7.765625 6.578125 -7.390625 Z M 5.859375 -7.75 C 6.347656 -8.082031 6.722656 -8.457031 6.984375 -8.875 C 7.253906 -9.300781 7.390625 -9.75 7.390625 -10.21875 C 7.390625 -10.539062 7.328125 -10.84375 7.203125 -11.125 C 7.085938 -11.414062 6.925781 -11.664062 6.71875 -11.875 C 6.507812 -12.082031 6.257812 -12.242188 5.96875 -12.359375 C 5.6875 -12.484375 5.375 -12.546875 5.03125 -12.546875 C 4.394531 -12.546875 3.882812 -12.363281 3.5 -12 C 3.125 -11.632812 2.9375 -11.160156 2.9375 -10.578125 C 2.9375 -10.117188 3.097656 -9.703125 3.421875 -9.328125 C 3.753906 -8.960938 4.300781 -8.582031 5.0625 -8.1875 Z M 5.859375 -7.75 "/></g></g></g><g fill="#ffffff" fill-opacity="1"><g transform="translate(264.721923, 168.868302)"><g><path d="M 0.96875 -8.734375 C 0.96875 -9.367188 1.082031 -9.960938 1.3125 -10.515625 C 1.550781 -11.078125 1.875 -11.566406 2.28125 -11.984375 C 2.695312 -12.398438 3.179688 -12.726562 3.734375 -12.96875 C 4.285156 -13.207031 4.875 -13.328125 5.5 -13.328125 C 6.144531 -13.328125 6.738281 -13.179688 7.28125 -12.890625 C 7.832031 -12.597656 8.304688 -12.1875 8.703125 -11.65625 C 9.097656 -11.132812 9.398438 -10.507812 9.609375 -9.78125 C 9.828125 -9.050781 9.9375 -8.253906 9.9375 -7.390625 C 9.9375 -6.359375 9.789062 -5.382812 9.5 -4.46875 C 9.21875 -3.550781 8.832031 -2.75 8.34375 -2.0625 C 7.851562 -1.375 7.28125 -0.828125 6.625 -0.421875 C 5.96875 -0.0234375 5.269531 0.171875 4.53125 0.171875 C 4.113281 0.171875 3.722656 0.125 3.359375 0.03125 C 3.003906 -0.0625 2.691406 -0.179688 2.421875 -0.328125 C 2.160156 -0.484375 1.953125 -0.671875 1.796875 -0.890625 C 1.648438 -1.109375 1.578125 -1.335938 1.578125 -1.578125 C 1.578125 -1.847656 1.65625 -2.0625 1.8125 -2.21875 C 1.976562 -2.375 2.207031 -2.453125 2.5 -2.453125 C 2.820312 -2.453125 3.054688 -2.351562 3.203125 -2.15625 C 3.347656 -1.96875 3.484375 -1.753906 3.609375 -1.515625 C 3.734375 -1.285156 3.890625 -1.070312 4.078125 -0.875 C 4.273438 -0.6875 4.585938 -0.59375 5.015625 -0.59375 C 5.410156 -0.59375 5.773438 -0.726562 6.109375 -1 C 6.441406 -1.28125 6.734375 -1.660156 6.984375 -2.140625 C 7.234375 -2.617188 7.425781 -3.179688 7.5625 -3.828125 C 7.695312 -4.484375 7.765625 -5.203125 7.765625 -5.984375 L 7.71875 -6.015625 C 7.351562 -5.472656 6.957031 -5.078125 6.53125 -4.828125 C 6.101562 -4.585938 5.597656 -4.46875 5.015625 -4.46875 C 4.441406 -4.46875 3.910156 -4.578125 3.421875 -4.796875 C 2.929688 -5.015625 2.503906 -5.3125 2.140625 -5.6875 C 1.773438 -6.070312 1.488281 -6.523438 1.28125 -7.046875 C 1.070312 -7.566406 0.96875 -8.128906 0.96875 -8.734375 Z M 7.8125 -8.3125 C 7.8125 -11.132812 7.019531 -12.546875 5.4375 -12.546875 C 4.644531 -12.546875 4.054688 -12.238281 3.671875 -11.625 C 3.296875 -11.019531 3.109375 -10.078125 3.109375 -8.796875 C 3.109375 -7.660156 3.289062 -6.796875 3.65625 -6.203125 C 4.019531 -5.609375 4.554688 -5.3125 5.265625 -5.3125 C 5.785156 -5.3125 6.242188 -5.484375 6.640625 -5.828125 C 7.035156 -6.171875 7.425781 -6.722656 7.8125 -7.484375 Z M 7.8125 -8.3125 "/></g></g></g><g fill="#ffffff" fill-opacity="1"><g transform="translate(275.698286, 168.868302)"><g><path d="M 3.375 -8.234375 L 3.421875 -8.1875 C 3.585938 -8.3125 3.832031 -8.414062 4.15625 -8.5 C 4.488281 -8.582031 4.820312 -8.625 5.15625 -8.625 C 5.65625 -8.625 6.117188 -8.523438 6.546875 -8.328125 C 6.984375 -8.128906 7.359375 -7.851562 7.671875 -7.5 C 7.984375 -7.144531 8.226562 -6.722656 8.40625 -6.234375 C 8.59375 -5.753906 8.6875 -5.234375 8.6875 -4.671875 C 8.6875 -3.992188 8.554688 -3.359375 8.296875 -2.765625 C 8.046875 -2.179688 7.695312 -1.671875 7.25 -1.234375 C 6.800781 -0.796875 6.269531 -0.453125 5.65625 -0.203125 C 5.050781 0.046875 4.394531 0.171875 3.6875 0.171875 C 3.207031 0.171875 2.757812 0.113281 2.34375 0 C 1.9375 -0.125 1.585938 -0.285156 1.296875 -0.484375 C 1.015625 -0.691406 0.789062 -0.941406 0.625 -1.234375 C 0.457031 -1.523438 0.375 -1.84375 0.375 -2.1875 C 0.375 -2.488281 0.441406 -2.722656 0.578125 -2.890625 C 0.722656 -3.066406 0.929688 -3.15625 1.203125 -3.15625 C 1.429688 -3.15625 1.601562 -3.09375 1.71875 -2.96875 C 1.84375 -2.84375 1.941406 -2.679688 2.015625 -2.484375 C 2.085938 -2.296875 2.148438 -2.085938 2.203125 -1.859375 C 2.253906 -1.640625 2.332031 -1.429688 2.4375 -1.234375 C 2.550781 -1.046875 2.707031 -0.890625 2.90625 -0.765625 C 3.101562 -0.640625 3.378906 -0.578125 3.734375 -0.578125 C 4.179688 -0.578125 4.582031 -0.679688 4.9375 -0.890625 C 5.289062 -1.109375 5.585938 -1.410156 5.828125 -1.796875 C 6.066406 -2.191406 6.25 -2.664062 6.375 -3.21875 C 6.507812 -3.769531 6.578125 -4.390625 6.578125 -5.078125 C 6.578125 -6.046875 6.441406 -6.753906 6.171875 -7.203125 C 5.898438 -7.660156 5.453125 -7.890625 4.828125 -7.890625 C 4.347656 -7.890625 3.957031 -7.757812 3.65625 -7.5 C 3.351562 -7.25 3.109375 -6.835938 2.921875 -6.265625 C 2.847656 -6.054688 2.78125 -5.925781 2.71875 -5.875 C 2.664062 -5.820312 2.597656 -5.796875 2.515625 -5.796875 C 2.265625 -5.796875 2.140625 -5.90625 2.140625 -6.125 C 2.140625 -6.1875 2.144531 -6.234375 2.15625 -6.265625 L 3.984375 -13.328125 C 4.234375 -13.222656 4.515625 -13.144531 4.828125 -13.09375 C 5.148438 -13.039062 5.535156 -13.015625 5.984375 -13.015625 C 7.035156 -13.015625 7.789062 -13.125 8.25 -13.34375 L 8.34375 -13.328125 C 8.207031 -12.671875 7.910156 -12.164062 7.453125 -11.8125 C 6.992188 -11.457031 6.40625 -11.28125 5.6875 -11.28125 L 4.1875 -11.28125 Z M 3.375 -8.234375 "/></g></g></g></svg>